<svg width="327" height="182" viewBox="0 0 327 182" fill="none" xmlns="http://www.w3.org/2000/svg">
<g clip-path="url(#clip0)">
<path d="M246.99 144.934C246.095 139.747 245.859 134.492 246.285 129.261L246.99 120.605C243.104 127.256 243.982 136.011 246.99 144.934V144.934Z" fill="#CACACA"/>
<path d="M250.021 146.382C249.59 143.287 249.477 140.166 249.682 137.053L250.021 131.901C248.151 135.86 248.574 141.071 250.021 146.382Z" fill="#CACACA"/>
<path d="M263.493 152.755V155.651C263.491 155.881 263.384 156.101 263.195 156.264C263.006 156.427 262.75 156.519 262.482 156.52H260.799C260.754 156.52 260.711 156.527 260.67 156.542C260.629 156.556 260.592 156.577 260.56 156.604C260.529 156.631 260.504 156.663 260.487 156.699C260.47 156.734 260.462 156.771 260.462 156.81V180.559C260.461 180.789 260.354 181.01 260.165 181.172C259.975 181.335 259.719 181.427 259.452 181.428H238.91C238.642 181.428 238.385 181.337 238.196 181.174C238.007 181.011 237.9 180.79 237.9 180.559V156.81C237.9 156.733 237.864 156.659 237.801 156.605C237.738 156.551 237.652 156.52 237.563 156.52H235.543C235.275 156.52 235.018 156.428 234.828 156.265C234.639 156.102 234.533 155.881 234.532 155.651V152.755C234.532 152.64 234.558 152.527 234.609 152.422C234.66 152.316 234.734 152.221 234.828 152.14C234.922 152.059 235.033 151.995 235.156 151.952C235.278 151.908 235.41 151.886 235.543 151.886H262.482C262.75 151.886 263.007 151.978 263.196 152.141C263.385 152.304 263.492 152.524 263.493 152.755Z" fill="#F2F2F2"/>
<path d="M260.492 157.128H237.93V157.997H260.492V157.128Z" fill="#E6E6E6"/>
<path d="M260.462 169.914C252.912 172.601 245.28 172.631 237.563 169.914V163.793C244.992 161.647 253.033 161.647 260.462 163.793V169.914Z" fill="#E6E6E6"/>
<path d="M152.036 72.5186C158.804 72.5186 164.292 67.7991 164.292 61.9772C164.292 56.1553 158.804 51.4358 152.036 51.4358C145.267 51.4358 139.779 56.1553 139.779 61.9772C139.779 67.7991 145.267 72.5186 152.036 72.5186Z" fill="#2F2E41"/>
<path d="M155.45 51.7261C157.571 51.7263 159.656 52.1999 161.5 53.1006C163.345 54.0014 164.886 55.2983 165.974 56.8648C167.061 58.4312 167.657 60.2135 167.703 62.0374C167.75 63.8613 167.246 65.6643 166.239 67.2703C167.302 66.1269 168.076 64.8056 168.512 63.3906C168.948 61.9757 169.036 60.4981 168.772 59.0521C168.507 57.6061 167.895 56.2234 166.975 54.992C166.055 53.7606 164.846 52.7077 163.427 51.9002C162.007 51.0927 160.408 50.5484 158.73 50.302C157.053 50.0556 155.334 50.1125 153.683 50.469C152.032 50.8256 150.486 51.474 149.143 52.3729C147.8 53.2718 146.689 54.4015 145.881 55.6901C147.027 54.453 148.482 53.4541 150.139 52.7677C151.796 52.0814 153.611 51.7253 155.45 51.7261Z" fill="#2F2E41"/>
<path d="M129.133 61.9549C149.017 61.9549 165.136 48.0913 165.136 30.9896C165.136 13.8878 149.017 0.0241699 129.133 0.0241699C109.249 0.0241699 93.1304 13.8878 93.1304 30.9896C93.1304 48.0913 109.249 61.9549 129.133 61.9549Z" fill="#2F2E41"/>
<path d="M100.877 11.7769C107.08 5.77631 115.752 2.08343 125.061 1.47766C134.371 0.871885 143.589 3.40062 150.772 8.53015C150.478 8.28945 150.186 8.04679 149.88 7.81289C142.743 2.36063 133.381 -0.430646 123.852 0.0528013C114.322 0.536248 105.406 4.25484 99.0642 10.3909C92.722 16.5271 89.4726 24.5783 90.0306 32.7745C90.5886 40.9707 94.9082 48.6408 102.04 54.0983C102.346 54.3322 102.66 54.5526 102.972 54.7759C96.2082 49.2416 92.2085 41.6634 91.8175 33.6408C91.4265 25.6181 94.6748 17.7787 100.877 11.7769Z" fill="#2F2E41"/>
<path d="M128.828 61.6926C141.634 61.6926 152.016 52.7634 152.016 41.7487C152.016 30.7341 141.634 21.8049 128.828 21.8049C116.022 21.8049 105.64 30.7341 105.64 41.7487C105.64 52.7634 116.022 61.6926 128.828 61.6926Z" fill="#FFB8B8"/>
<path d="M140.673 67.1067L115.859 68.0662C115.859 68.0662 117.93 79.1035 104.505 80.1532C91.0806 81.2029 78.8763 78.0539 73.9946 85.9264C69.1129 93.799 71.217 121.831 71.217 121.831C71.217 121.831 80.3702 150.172 87.6928 154.371C95.0153 158.57 159.088 152.796 159.088 152.796L185.902 123.676L184.994 101.218C184.52 89.4901 172.071 80.6852 158.663 82.8554C158.399 82.8981 158.134 82.944 157.867 82.9931C157.867 82.9931 154.922 81.0996 146.84 77.624C141.897 75.4986 140.673 67.1067 140.673 67.1067Z" fill="#CACACA"/>
<path d="M86.8091 79.6283C86.8091 79.6283 92.7069 88.8322 90.266 101.953C87.8252 115.074 98.0664 142.825 98.0664 142.825L105.389 141.25C105.389 141.25 100.507 113.958 101.728 107.66C102.948 101.362 103.285 82.7773 97.1828 79.6283C91.0807 76.4793 86.8091 79.6283 86.8091 79.6283Z" fill="#2F2E41"/>
<path d="M157.438 84.4541L160.003 142.562L164.885 145.186C164.885 145.186 171.902 81.4185 168.241 81.4185H160.791C160.35 81.4185 159.914 81.4931 159.506 81.6383C159.099 81.7834 158.729 81.9961 158.417 82.2643C158.105 82.5324 157.858 82.8508 157.689 83.2011C157.521 83.5515 157.434 83.927 157.434 84.3062C157.434 84.3556 157.435 84.4049 157.438 84.4541Z" fill="#2F2E41"/>
<path d="M101.423 141.512C103.108 141.512 104.474 140.337 104.474 138.888C104.474 137.439 103.108 136.264 101.423 136.264C99.7375 136.264 98.3715 137.439 98.3715 138.888C98.3715 140.337 99.7375 141.512 101.423 141.512Z" fill="#07730A"/>
<path d="M162.444 144.137C164.129 144.137 165.495 142.962 165.495 141.512C165.495 140.063 164.129 138.888 162.444 138.888C160.759 138.888 159.393 140.063 159.393 141.512C159.393 142.962 160.759 144.137 162.444 144.137Z" fill="#07730A"/>
<path d="M108.996 16.8186V36.7624H114.366L121.2 30.4644L120.285 36.7624H144.022L142.558 30.4644L145.487 36.7624H149.27V16.8186H108.996Z" fill="#2F2E41"/>
<path d="M105.335 40.4365C106.346 40.4365 107.165 39.1442 107.165 37.5499C107.165 35.9557 106.346 34.6633 105.335 34.6633C104.324 34.6633 103.504 35.9557 103.504 37.5499C103.504 39.1442 104.324 40.4365 105.335 40.4365Z" fill="#FFB8B8"/>
<path d="M152.321 40.4365C153.332 40.4365 154.152 39.1442 154.152 37.5499C154.152 35.9557 153.332 34.6633 152.321 34.6633C151.31 34.6633 150.491 35.9557 150.491 37.5499C150.491 39.1442 151.31 40.4365 152.321 40.4365Z" fill="#FFB8B8"/>
<path d="M203.11 176.226V177.984C203.111 178.467 203.008 178.945 202.804 179.395C202.713 179.595 202.604 179.789 202.477 179.974C202.076 180.553 201.506 181.033 200.825 181.366C200.143 181.699 199.372 181.874 198.588 181.874H48.2128C47.4287 181.874 46.6579 181.699 45.9761 181.366C45.2942 181.033 44.7247 180.553 44.3234 179.974C44.1964 179.789 44.0872 179.595 43.9968 179.395C43.7931 178.945 43.6892 178.467 43.6903 177.984V176.226C43.6902 175.715 43.8069 175.21 44.034 174.738C44.2611 174.266 44.594 173.837 45.0137 173.476C45.4335 173.115 45.9318 172.828 46.4803 172.633C47.0288 172.437 47.6167 172.336 48.2104 172.336H56.8807V171.517C56.8807 171.495 56.8855 171.474 56.895 171.455C56.9044 171.435 56.9182 171.417 56.9357 171.402C56.9531 171.387 56.9739 171.375 56.9967 171.367C57.0195 171.359 57.044 171.355 57.0687 171.354H61.5919C61.6418 171.354 61.6897 171.371 61.7251 171.402C61.7604 171.432 61.7803 171.473 61.7804 171.516V172.336H64.6057V171.517C64.6057 171.495 64.6105 171.474 64.62 171.455C64.6294 171.435 64.6432 171.417 64.6607 171.402C64.6781 171.387 64.6989 171.375 64.7217 171.367C64.7445 171.359 64.769 171.355 64.7937 171.354H69.3168C69.3668 171.354 69.4147 171.371 69.4501 171.402C69.4854 171.432 69.5054 171.473 69.5054 171.516V172.336H72.3341V171.517C72.3341 171.495 72.3389 171.474 72.3483 171.455C72.3578 171.435 72.3716 171.417 72.389 171.402C72.4065 171.387 72.4272 171.375 72.4501 171.367C72.4729 171.359 72.4974 171.355 72.5221 171.355H77.0452C77.0952 171.354 77.1431 171.371 77.1784 171.402C77.2138 171.432 77.2337 171.473 77.2338 171.516V172.336H80.0591V171.517C80.0591 171.495 80.0639 171.474 80.0733 171.455C80.0828 171.435 80.0966 171.417 80.114 171.402C80.1315 171.387 80.1522 171.375 80.1751 171.367C80.1979 171.359 80.2224 171.355 80.2471 171.355H84.7702C84.8202 171.354 84.8681 171.371 84.9034 171.402C84.9388 171.432 84.9587 171.473 84.9588 171.516V172.336H87.7841V171.517C87.7841 171.495 87.7889 171.474 87.7983 171.455C87.8078 171.435 87.8216 171.417 87.839 171.402C87.8565 171.387 87.8772 171.375 87.9001 171.367C87.9229 171.359 87.9474 171.355 87.9721 171.355H92.4952C92.5452 171.354 92.5931 171.371 92.6284 171.402C92.6638 171.432 92.6837 171.473 92.6838 171.516V172.336H95.5125V171.517C95.5124 171.495 95.5173 171.474 95.5267 171.455C95.5361 171.435 95.55 171.417 95.5674 171.402C95.5849 171.387 95.6056 171.375 95.6284 171.367C95.6512 171.359 95.6757 171.355 95.7005 171.355H100.224C100.274 171.354 100.321 171.371 100.357 171.402C100.392 171.432 100.412 171.473 100.412 171.516V172.336H103.237V171.517C103.237 171.495 103.242 171.474 103.252 171.455C103.261 171.435 103.275 171.417 103.292 171.402C103.31 171.387 103.331 171.375 103.353 171.367C103.376 171.359 103.401 171.355 103.425 171.355H138.852C138.877 171.354 138.901 171.359 138.924 171.367C138.947 171.375 138.968 171.387 138.985 171.402C139.003 171.417 139.017 171.435 139.026 171.454C139.036 171.474 139.041 171.495 139.041 171.516V172.336H141.869V171.517C141.869 171.495 141.874 171.474 141.883 171.455C141.893 171.435 141.907 171.417 141.924 171.402C141.942 171.387 141.962 171.375 141.985 171.367C142.008 171.359 142.033 171.355 142.057 171.355H146.58C146.63 171.355 146.678 171.372 146.713 171.402C146.748 171.433 146.768 171.474 146.769 171.517V172.336H149.594V171.517C149.594 171.495 149.599 171.474 149.608 171.455C149.618 171.435 149.632 171.417 149.649 171.402C149.667 171.387 149.687 171.375 149.71 171.367C149.733 171.359 149.758 171.355 149.782 171.355H154.305C154.33 171.354 154.355 171.359 154.377 171.367C154.4 171.375 154.421 171.387 154.439 171.402C154.456 171.417 154.47 171.435 154.48 171.454C154.489 171.474 154.494 171.495 154.494 171.516V172.336H157.319V171.517C157.319 171.495 157.324 171.474 157.333 171.455C157.343 171.435 157.357 171.417 157.374 171.402C157.392 171.387 157.412 171.375 157.435 171.367C157.458 171.359 157.483 171.355 157.507 171.355H162.03C162.055 171.355 162.08 171.359 162.102 171.367C162.125 171.375 162.146 171.387 162.164 171.402C162.181 171.417 162.195 171.435 162.204 171.454C162.214 171.474 162.219 171.495 162.219 171.516V172.336H165.048V171.517C165.048 171.495 165.052 171.474 165.062 171.455C165.071 171.435 165.085 171.417 165.103 171.402C165.12 171.387 165.141 171.375 165.164 171.367C165.186 171.359 165.211 171.355 165.236 171.355H169.759C169.808 171.355 169.856 171.372 169.89 171.403C169.925 171.433 169.944 171.474 169.944 171.517V172.336H172.773V171.517C172.773 171.495 172.777 171.474 172.787 171.455C172.796 171.435 172.81 171.417 172.828 171.402C172.845 171.387 172.866 171.375 172.889 171.367C172.911 171.359 172.936 171.355 172.961 171.355H177.484C177.508 171.355 177.533 171.359 177.556 171.367C177.579 171.375 177.599 171.387 177.617 171.402C177.634 171.417 177.648 171.435 177.658 171.454C177.667 171.474 177.672 171.495 177.672 171.516V172.336H180.498V171.517C180.498 171.495 180.502 171.474 180.512 171.455C180.521 171.435 180.535 171.417 180.553 171.402C180.57 171.387 180.591 171.375 180.614 171.367C180.636 171.359 180.661 171.355 180.686 171.355H185.209C185.233 171.355 185.258 171.359 185.281 171.367C185.304 171.375 185.324 171.387 185.342 171.402C185.359 171.417 185.373 171.435 185.383 171.454C185.392 171.474 185.397 171.495 185.397 171.516V172.336H198.588C199.787 172.336 200.937 172.746 201.785 173.475C202.633 174.204 203.11 175.193 203.11 176.224L203.11 176.226Z" fill="#3F3D56"/>
<path d="M327 181.421H0V182H327V181.421Z" fill="#3F3D56"/>
<path d="M191.002 102.186H53.257C52.7591 102.186 52.2661 102.27 51.8061 102.434C51.3461 102.598 50.9282 102.838 50.5761 103.141C50.224 103.444 49.9448 103.803 49.7543 104.199C49.5637 104.595 49.4657 105.019 49.4657 105.447V171.458C49.4657 172.322 49.8651 173.152 50.5761 173.763C51.2871 174.375 52.2514 174.718 53.257 174.718H191.002C192.007 174.718 192.972 174.375 193.683 173.763C194.394 173.152 194.793 172.322 194.793 171.458V105.447C194.793 104.582 194.394 103.753 193.683 103.141C192.972 102.53 192.007 102.186 191.002 102.186Z" fill="#3F3D56"/>
<path d="M122.24 132.473C126.889 132.473 130.658 129.231 130.658 125.232C130.658 121.233 126.889 117.991 122.24 117.991C117.59 117.991 113.821 121.233 113.821 125.232C113.821 129.231 117.59 132.473 122.24 132.473Z" fill="#79A5D9"/>
<path d="M174.356 77.3956L216.855 40.5534H236.92V39.9741H216.574L216.476 40.0601L173.877 76.9883L174.356 77.3956Z" fill="#3F3D56"/>
<path d="M310.668 25.4275H261.427V29.2014H310.668V25.4275Z" fill="#07730A"/>
<path d="M255.426 31.5878H245.002V22.6221H255.426V31.5878ZM245.675 31.0086H254.752V23.2013H245.675L245.675 31.0086Z" fill="#3F3D56"/>
<path d="M310.668 38.0071H261.427V41.781H310.668V38.0071Z" fill="#07730A"/>
<path d="M255.426 44.1673H245.002V35.2017H255.426V44.1673ZM245.675 43.588H254.752V35.7809H245.675L245.675 43.588Z" fill="#3F3D56"/>
<path d="M310.668 50.5867H261.427V54.3606H310.668V50.5867Z" fill="#07730A"/>
<path d="M255.426 56.7468H245.002V47.7812H255.426V56.7468ZM245.675 56.1676H254.752V48.3605H245.675L245.675 56.1676Z" fill="#3F3D56"/>
</g>
<defs>
<clipPath id="clip0">
<rect width="327" height="182" fill="white"/>
</clipPath>
</defs>
</svg>
