<svg width="70" height="63" viewBox="0 0 70 63" fill="none" xmlns="http://www.w3.org/2000/svg">
<path d="M35 0.284668C15.6719 0.284668 0 14.6742 0 32.4059C0 46.5997 10.0312 58.626 23.9375 62.8771C24.1326 62.915 24.3316 62.9338 24.5312 62.933C25.8281 62.933 26.3281 62.08 26.3281 61.3389C26.3281 60.5697 26.2969 58.556 26.2812 55.8711C25.1235 56.114 23.9391 56.2407 22.75 56.2487C16.0156 56.2487 14.4844 51.564 14.4844 51.564C12.8906 47.8583 10.5938 46.8654 10.5938 46.8654C7.54688 44.9496 10.5781 44.8937 10.8125 44.8937H10.8281C14.3438 45.1733 16.1875 48.2219 16.1875 48.2219C17.9375 50.9627 20.2812 51.7318 22.375 51.7318C23.7594 51.7071 25.1224 51.4212 26.375 50.8928C26.6875 48.8232 27.5938 47.4108 28.5938 46.5997C20.8281 45.7886 12.6562 43.0338 12.6562 30.7279C12.6562 27.2179 14.0156 24.3512 16.25 22.1137C15.8906 21.3026 14.6875 18.0304 16.5938 13.6114C16.8494 13.5567 17.1123 13.5332 17.375 13.5415C18.6406 13.5415 21.5 13.975 26.2188 16.9117C31.9524 15.4759 38.0163 15.4759 43.75 16.9117C48.4688 13.975 51.3281 13.5415 52.5938 13.5415C52.8565 13.5332 53.1193 13.5567 53.375 13.6114C55.2812 18.0304 54.0781 21.3026 53.7188 22.1137C55.9531 24.3651 57.3125 27.2319 57.3125 30.7279C57.3125 43.0618 49.125 45.7747 41.3281 46.5718C42.5781 47.5646 43.7031 49.5224 43.7031 52.515C43.7031 56.808 43.6562 60.2761 43.6562 61.3249C43.6562 62.08 44.1406 62.933 45.4375 62.933C45.6474 62.9339 45.8569 62.9151 46.0625 62.8771C59.9844 58.626 70 46.5857 70 32.4059C70 14.6742 54.3281 0.284668 35 0.284668Z" fill="black"/>
</svg>
