<svg width="70" height="64" viewBox="0 0 70 64" fill="none" xmlns="http://www.w3.org/2000/svg">
<path d="M64.4016 0.469727H5.98125C2.78906 0.469727 0 2.52538 0 5.34875V57.7496C0 60.5884 2.78906 63.1181 5.98125 63.1181H64.3844C67.5938 63.1181 70 60.5716 70 57.7496V5.34875C70.0188 2.52538 67.5938 0.469727 64.4016 0.469727ZM21.6984 52.6902H11.6703V24.7851H21.6984V52.6902ZM17.0313 20.5424H16.9594C13.75 20.5424 11.6719 18.4042 11.6719 15.7277C11.6719 13.0022 13.8047 10.9144 17.0859 10.9144C20.3672 10.9144 22.375 12.9868 22.4469 15.7277C22.4453 18.4042 20.3672 20.5424 17.0313 20.5424ZM58.3484 52.6902H48.3203V37.4323C48.3203 33.7769 46.8609 31.2793 43.2328 31.2793C40.4609 31.2793 38.8203 32.9574 38.0906 34.5921C37.8172 35.1795 37.7438 35.9793 37.7438 36.796V52.6902H27.7156V24.7851H37.7438V28.6685C39.2031 26.8086 41.4828 24.1321 46.7875 24.1321C53.3703 24.1321 58.35 28.0154 58.35 36.3877L58.3484 52.6902Z" fill="black"/>
</svg>
