<svg width="573" height="355" viewBox="0 0 573 355" fill="none" xmlns="http://www.w3.org/2000/svg">
<path d="M507.107 166.712H74.0795V353.878H507.107V166.712Z" fill="#E6E6E6"/>
<path d="M494.725 182.762H86.462V338.921H494.725V182.762Z" fill="white"/>
<path d="M426.45 211.828H415.879V221.458H426.45V211.828Z" fill="#E6E6E6"/>
<path d="M144.463 211.828H133.891V221.458H144.463V211.828Z" fill="#00B0FF"/>
<path d="M168.825 239.412H133.585V271.511H168.825V239.412Z" fill="#E6E6E6"/>
<path d="M506.923 155.899H73.8949V172.655H506.923V155.899Z" fill="#00B0FF"/>
<path d="M87.5656 171.1C89.4487 171.1 90.9753 169.71 90.9753 167.994C90.9753 166.279 89.4487 164.889 87.5656 164.889C85.6825 164.889 84.1559 166.279 84.1559 167.994C84.1559 169.71 85.6825 171.1 87.5656 171.1Z" fill="white"/>
<path d="M100.508 171.1C102.391 171.1 103.917 169.71 103.917 167.994C103.917 166.279 102.391 164.889 100.508 164.889C98.6245 164.889 97.0979 166.279 97.0979 167.994C97.0979 169.71 98.6245 171.1 100.508 171.1Z" fill="white"/>
<path d="M113.45 171.1C115.333 171.1 116.86 169.71 116.86 167.994C116.86 166.279 115.333 164.889 113.45 164.889C111.567 164.889 110.041 166.279 110.041 167.994C110.041 169.71 111.567 171.1 113.45 171.1Z" fill="white"/>
<path d="M573 353.879H0V355H573V353.879Z" fill="#E6E6E6"/>
<path d="M291.712 242.622H205.374V247.137H291.712V242.622Z" fill="#E6E6E6"/>
<path d="M338.7 259.09H205.374V263.604H338.7V259.09Z" fill="#00B0FF"/>
<path d="M314.031 274.604H205.374V279.118H314.031V274.604Z" fill="#E6E6E6"/>
<path d="M268.807 290.06H205.374V294.575H268.807V290.06Z" fill="#E6E6E6"/>
<path d="M301.11 305.516H205.374V310.03H301.11V305.516Z" fill="#E6E6E6"/>
<path d="M444.659 211.828H434.087V221.458H444.659V211.828Z" fill="#E6E6E6"/>
<path d="M462.866 211.828H452.294V221.458H462.866V211.828Z" fill="#E6E6E6"/>
<path opacity="0.997" d="M441.395 294.574C453.253 294.574 462.865 285.819 462.865 275.018C462.865 264.217 453.253 255.461 441.395 255.461C429.538 255.461 419.925 264.217 419.925 275.018C419.925 285.819 429.538 294.574 441.395 294.574Z" fill="#00B0FF"/>
<path d="M116.009 52.9539C129.358 52.9539 140.18 43.0965 140.18 30.9369C140.18 18.7773 129.358 8.91992 116.009 8.91992C102.659 8.91992 91.8375 18.7773 91.8375 30.9369C91.8375 43.0965 102.659 52.9539 116.009 52.9539Z" fill="#2F2E41"/>
<path d="M55.8556 219.317H45.2695L40.2344 182.134H55.8543L55.8556 219.317Z" fill="#FEB8B8"/>
<path d="M37.7128 216.562H58.1235V228.268H24.8612C24.8612 225.164 26.2152 222.186 28.6253 219.991C31.0355 217.795 34.3043 216.562 37.7128 216.562Z" fill="#2F2E41"/>
<path d="M39.3345 213.937L29.2372 211.05L36.6548 174.198L51.5577 178.459L39.3345 213.937Z" fill="#FEB8B8"/>
<path d="M22.9237 206.362L42.3986 211.929L38.5506 223.098L6.81433 214.026C7.31967 212.559 8.13721 211.197 9.2203 210.018C10.3034 208.84 11.6308 207.866 13.1268 207.155C14.6227 206.443 16.2579 206.007 17.939 205.871C19.6201 205.735 21.3141 205.902 22.9244 206.362L22.9237 206.362Z" fill="#2F2E41"/>
<path d="M42.778 199.099C42.3156 199.099 41.8569 199.023 41.424 198.875L33.6353 196.216C32.7611 195.914 32.035 195.337 31.5891 194.589C31.1432 193.841 31.0072 192.971 31.206 192.14C33.1663 184.111 39.8472 156.778 43.5055 142.117C47.8439 124.728 111.136 121.496 113.828 121.367L114.05 121.357L121.17 129.503C123.742 137.035 122.927 142.91 118.746 146.966C106.545 158.798 70.1202 151.456 65.7769 150.527L46.4173 196.821C46.1352 197.491 45.6365 198.068 44.987 198.474C44.3376 198.881 43.568 199.099 42.7799 199.099H42.778Z" fill="#2F2E41"/>
<path d="M54.0005 204.604C53.5381 204.604 53.0794 204.528 52.6465 204.379L44.8602 201.72C43.986 201.419 43.2598 200.841 42.8139 200.093C42.3679 199.345 42.2321 198.475 42.431 197.644C44.3912 189.615 51.0721 162.282 54.7305 147.621C59.0689 130.232 122.361 127 125.053 126.871L125.275 126.861L132.392 135.009C134.965 142.542 134.149 148.417 129.968 152.472C117.768 164.301 81.3427 156.962 76.9993 156.033L57.6373 202.325C57.3552 202.995 56.8565 203.572 56.2071 203.978C55.5576 204.385 54.7881 204.603 53.9999 204.603L54.0005 204.604Z" fill="#2F2E41"/>
<path d="M31.4738 91.3548C31.7597 91.7034 32.0151 92.0719 32.2376 92.457L74.8144 96.5427L80.9444 88.8881L94.8349 95.8033L82.797 114.377L30.5801 102.25C29.2627 103.42 27.5855 104.197 25.7715 104.478C23.9575 104.758 22.0927 104.529 20.4252 103.821C18.7577 103.112 17.3664 101.958 16.4365 100.512C15.5065 99.0661 15.082 97.3963 15.2192 95.725C15.3565 94.0538 16.0491 92.4601 17.2049 91.1561C18.3607 89.8521 19.925 88.8995 21.6897 88.4251C23.4543 87.9506 25.3357 87.9767 27.0837 88.4999C28.8317 89.0232 30.3634 90.0187 31.475 91.3542L31.4738 91.3548Z" fill="#FEB8B8"/>
<path d="M130.416 138.128C129.8 138.127 129.194 137.993 128.646 137.736C120.132 133.793 103.554 126.964 88.1811 125.535C87.655 125.488 87.1455 125.341 86.6853 125.104C86.225 124.867 85.8243 124.545 85.5088 124.159C85.1871 123.769 84.9572 123.322 84.8334 122.847C84.7096 122.372 84.6946 121.879 84.7893 121.399C86.1765 114.404 89.3585 96.592 88.9486 82.3171C88.8279 77.9279 90.3503 73.6319 93.2655 70.1353C96.1808 66.6388 100.315 64.1497 104.99 63.0774C107.803 62.4013 110.66 61.888 113.544 61.5407C116.861 61.1582 120.229 61.4884 123.38 62.5049C126.531 63.5214 129.377 65.196 131.689 67.3944C134.002 69.5929 135.717 72.2541 136.698 75.165C137.678 78.0759 137.897 81.1554 137.335 84.157C134.594 98.9505 131.83 119.612 134.232 134.036C134.343 134.682 134.254 135.344 133.977 135.948C133.7 136.551 133.245 137.073 132.662 137.456C132.01 137.89 131.224 138.126 130.416 138.128Z" fill="#CCCCCC"/>
<path d="M89.737 100.501C89.2063 100.5 88.6814 100.401 88.1947 100.208L77.1033 95.8352C76.1586 95.4615 75.4151 94.7618 75.0361 93.8894C74.6571 93.0171 74.6734 92.0435 75.0815 91.1821L83.655 73.1421C84.1642 72.049 84.9049 71.0579 85.8347 70.2255C86.7645 69.393 87.8651 68.7356 89.0738 68.2906C90.2826 67.8457 91.5756 67.6219 92.8793 67.6322C94.1829 67.6424 95.4716 67.8864 96.6717 68.3503C97.8719 68.8142 98.9599 69.4889 99.8738 70.3358C100.788 71.1827 101.509 72.1852 101.998 73.2862C102.486 74.3872 102.732 75.5651 102.721 76.7525C102.71 77.94 102.442 79.1138 101.932 80.207C101.914 80.2467 101.895 80.2863 101.876 80.3258L93.3024 98.3663C93.0006 98.9996 92.5025 99.5388 91.8692 99.918C91.2359 100.297 90.4949 100.5 89.737 100.501Z" fill="#CCCCCC"/>
<path d="M115.126 55.4037C126.836 55.4037 136.328 46.7569 136.328 36.0906C136.328 25.4242 126.836 16.7775 115.126 16.7775C103.416 16.7775 93.9227 25.4242 93.9227 36.0906C93.9227 46.7569 103.416 55.4037 115.126 55.4037Z" fill="#FEB8B8"/>
<path d="M93.5411 26.6C103.584 32.1844 114.906 35.5826 126.627 36.5301L123.139 32.7241C125.678 33.5793 128.35 34.0626 131.056 34.1559C132.41 34.1917 133.755 33.9378 134.983 33.4145C136.21 32.8912 137.286 32.1131 138.123 31.1426C138.807 30.1354 139.213 28.9924 139.307 27.8113C139.401 26.6301 139.18 25.4458 138.663 24.3592C137.6 22.1912 135.946 20.307 133.858 18.886C130.157 16.2189 125.788 14.4274 121.142 13.6711C116.497 12.9148 111.717 13.2172 107.231 14.5513C104.153 15.389 101.397 16.9995 99.2779 19.1982C97.2678 21.4569 93.3984 23.4695 94.4274 26.2216L93.5411 26.6Z" fill="#2F2E41"/>
<path d="M117.021 10.3305C121.247 6.42574 126.362 3.41236 132.005 1.50247C135.586 0.130057 139.515 -0.314039 143.356 0.219224C147.143 0.913263 150.724 3.29924 151.78 6.68366C152.642 9.45085 151.752 12.4305 150.412 15.0368C149.071 17.6431 147.281 20.0576 146.197 22.7598C145.091 25.517 144.758 28.4823 145.229 31.3864C145.7 34.2905 146.96 37.0414 148.894 39.3895C150.828 41.7375 153.376 43.6083 156.305 44.8321C159.235 46.0558 162.453 46.5937 165.669 46.3969C161.948 46.8516 158.519 48.4443 154.882 49.2914C151.246 50.1385 146.953 50.0819 144.251 47.7082C141.391 45.1972 141.334 41.1148 141.473 37.4995L142.088 21.3751C142.193 18.6343 142.282 15.8054 141.197 13.2462C140.111 10.687 137.532 8.44735 134.521 8.4709C132.239 8.48828 130.22 9.74797 128.39 10.9897C126.559 12.2315 124.622 13.5562 122.349 13.7412C120.076 13.9262 117.481 12.3957 117.651 10.3215" fill="#2F2E41"/>
<path d="M79.4784 133.167C78.0735 133.165 76.6865 132.88 75.4173 132.331C74.1482 131.783 73.0283 130.985 72.1386 129.994C71.2488 129.004 70.6112 127.846 70.2718 126.605C69.9324 125.363 69.8995 124.068 70.1756 122.813C70.4517 121.559 71.0299 120.375 71.8685 119.349C72.7071 118.322 73.7852 117.478 75.0252 116.876C76.2652 116.275 77.6363 115.931 79.0395 115.871C80.4428 115.81 81.8434 116.033 83.1404 116.525C83.5305 116.675 83.9087 116.85 84.2723 117.048L122.896 101.255L123.981 91.713L140.63 91.3071L140.52 107.192C140.5 109.032 139.828 110.818 138.606 112.283C137.383 113.748 135.674 114.816 133.733 115.326L88.567 127.034C88.4798 127.306 88.3771 127.574 88.2593 127.836C87.5346 129.412 86.3152 130.759 84.754 131.707C83.1928 132.656 81.3592 133.163 79.4827 133.166L79.4784 133.167Z" fill="#FEB8B8"/>
<path d="M139.22 99.0906C138.746 99.3088 138.229 99.4363 137.699 99.4651L125.636 100.141C124.608 100.197 123.597 99.8799 122.826 99.2586C122.054 98.6372 121.585 97.7625 121.52 96.8263L120.196 77.2048C120.038 74.8126 120.928 72.4609 122.672 70.6663C124.416 68.8716 126.87 67.7809 129.496 67.6338C132.123 67.4866 134.705 68.295 136.678 69.8814C138.65 71.4678 139.85 73.7024 140.014 76.0943L141.339 95.7157C141.385 96.405 141.209 97.0914 140.833 97.6909C140.457 98.2904 139.896 98.7769 139.221 99.0906H139.22Z" fill="#CCCCCC"/>
<path d="M114.929 129.646H42.8771C42.2728 129.646 41.7828 130.093 41.7828 130.643V134.154C41.7828 134.704 42.2728 135.15 42.8771 135.15H114.929C115.534 135.15 116.024 134.704 116.024 134.154V130.643C116.024 130.093 115.534 129.646 114.929 129.646Z" fill="#3F3D56"/>
<path d="M14.0973 130.04V91.5095C14.0991 90.1545 14.6908 88.8554 15.7428 87.8972C16.7947 86.9391 18.2209 86.4001 19.7085 86.3984H96.5391C98.0268 86.3999 99.4531 86.9389 100.505 87.8971C101.557 88.8553 102.149 90.1544 102.15 91.5095V130.04C102.149 131.395 101.557 132.694 100.505 133.652C99.4531 134.611 98.0268 135.15 96.5391 135.151H19.7085C18.2209 135.149 16.7947 134.61 15.7428 133.652C14.6908 132.694 14.0991 131.395 14.0973 130.04Z" fill="#3F3D56"/>
<path d="M59.0479 115.495C61.9086 115.495 64.2277 113.382 64.2277 110.777C64.2277 108.171 61.9086 106.059 59.0479 106.059C56.1872 106.059 53.8682 108.171 53.8682 110.777C53.8682 113.382 56.1872 115.495 59.0479 115.495Z" fill="white"/>
</svg>
