<svg width="453" height="380" viewBox="0 0 453 380" fill="none" xmlns="http://www.w3.org/2000/svg">
<path d="M434.739 150.631C434.739 216.553 389.254 272.581 325.904 293.002C300.404 301.176 273.124 303.327 246.511 299.261C243.985 298.877 241.477 298.436 238.988 297.938C235.614 297.271 232.28 296.504 228.987 295.637C160.974 277.817 111.124 219.643 111.124 150.631C111.124 67.4393 183.567 0 272.931 0C362.296 0 434.739 67.4393 434.739 150.631Z" fill="#E6E6E6"/>
<path d="M171.586 197.122C171.301 197.264 171.088 197.506 170.994 197.794C170.9 198.081 170.933 198.392 171.084 198.657L231.92 304.733C232.072 304.998 232.332 305.196 232.641 305.283C232.95 305.371 233.284 305.34 233.569 305.199L319.566 262.457C319.85 262.315 320.063 262.074 320.157 261.786C320.251 261.498 320.218 261.187 320.067 260.922L259.231 154.847C259.079 154.582 258.819 154.384 258.51 154.296C258.201 154.209 257.867 154.239 257.582 154.38L171.586 197.122Z" fill="#3F3D56"/>
<path d="M179.579 200.222L235.25 297.29L311.572 259.357L255.901 162.288L179.579 200.222ZM174.743 202.626L174.754 202.621L174.742 202.626L174.743 202.626Z" fill="white"/>
<path d="M198.823 210.894C197.637 211.483 197.385 213.203 198.259 214.728C199.134 216.253 200.81 217.015 201.995 216.425L257.893 188.643C259.079 188.054 259.331 186.333 258.457 184.809C257.582 183.284 255.906 182.522 254.721 183.111L198.823 210.894Z" fill="#87C2D8"/>
<path d="M205.71 222.902C204.524 223.492 204.272 225.212 205.146 226.737C206.021 228.262 207.697 229.023 208.882 228.434L264.78 200.652C265.966 200.062 266.218 198.342 265.344 196.817C264.469 195.293 262.793 194.531 261.608 195.12L205.71 222.902Z" fill="#87C2D8"/>
<path d="M212.597 234.911C211.411 235.5 211.159 237.22 212.033 238.745C212.908 240.27 214.584 241.032 215.769 240.442L271.667 212.66C272.853 212.071 273.105 210.35 272.231 208.826C271.356 207.301 269.68 206.539 268.495 207.128L212.597 234.911Z" fill="#87C2D8"/>
<path d="M219.484 246.919C218.298 247.508 218.046 249.229 218.92 250.754C219.795 252.278 221.471 253.04 222.656 252.451L278.554 224.669C279.74 224.079 279.992 222.359 279.118 220.834C278.243 219.309 276.568 218.548 275.382 219.137L219.484 246.919Z" fill="#87C2D8"/>
<path d="M226.371 258.928C225.185 259.517 224.933 261.237 225.807 262.762C226.682 264.287 228.358 265.049 229.543 264.459L285.441 236.677C286.627 236.088 286.879 234.367 286.005 232.843C285.13 231.318 283.454 230.556 282.269 231.145L226.371 258.928Z" fill="#87C2D8"/>
<path d="M237.226 151.294L287.876 154.173L302.06 114.794L257.635 106.055L237.226 151.294Z" fill="#2F2E41"/>
<path d="M273.754 141.336C284.942 141.336 294.012 132.893 294.012 122.478C294.012 112.063 284.942 103.62 273.754 103.62C262.567 103.62 253.497 112.063 253.497 122.478C253.497 132.893 262.567 141.336 273.754 141.336Z" fill="#FFB8B8"/>
<path d="M325.773 291.535L325.904 293.002C300.404 301.176 273.124 303.326 246.511 299.261L238.988 297.938L246.146 283.158L250.84 273.47L249.15 239.953L248.971 236.485L248.75 232.061L251.807 232.044L273.54 231.922L294.253 231.799L297.411 231.783C317.217 254.461 333.558 272.892 325.773 291.535Z" fill="#2F2E41"/>
<path d="M297.113 231.505L248.75 236.507L246.959 205.381C241.283 191.905 245.03 179.877 256.809 169.083L259.204 160.259C259.832 157.942 261.131 155.831 262.959 154.154C264.786 152.477 267.073 151.299 269.57 150.747C277.486 146.52 286.454 144.506 296.516 144.795C300.534 146.256 303.941 148.881 306.234 152.282C308.527 155.684 309.584 159.682 309.248 163.686C307.167 188.148 303.431 211.046 297.113 231.505Z" fill="#87C2D8"/>
<path d="M258.43 100.198C258.43 100.198 247.956 103.756 247.687 116.693C247.672 118.87 247.984 121.038 248.614 123.135C249.293 125.512 249.838 130.671 245.271 137.548C242.286 142.012 239.588 146.636 237.19 151.396L248.984 152.455L250.935 134.255C251.88 125.431 254.216 116.784 257.868 108.594L257.944 108.423C257.944 108.423 263.355 117.177 273.638 116.908L269.862 113.585C269.862 113.585 282.742 118.1 289.746 119.007C290.545 119.11 291.299 119.415 291.926 119.888C292.553 120.361 293.03 120.984 293.305 121.69C293.579 122.397 293.642 123.16 293.486 123.897C293.329 124.634 292.96 125.317 292.417 125.873C292.376 125.915 292.334 125.957 292.291 125.999C288.008 130.218 279.483 140.022 284.853 147.409C290.222 154.796 285.877 156.963 285.877 156.963L293.833 152.648L297.443 150.5L297.526 153.236L316.562 150.683C316.562 150.683 321.683 149.865 310.313 138.529C310.313 138.529 307.267 134.091 308.422 130.164C309.379 127.178 309.558 124.023 308.946 120.959C306.09 108.205 295.634 82.9726 258.43 100.198Z" fill="#2F2E41"/>
<path d="M272.931 378.611C313.162 378.611 345.775 376.869 345.775 374.72C345.775 372.571 313.162 370.829 272.931 370.829C232.701 370.829 200.088 372.571 200.088 374.72C200.088 376.869 232.701 378.611 272.931 378.611Z" fill="#E6E6E6"/>
<path d="M0.443354 179.275C0.290423 179.313 0.15997 179.406 0.0806222 179.533C0.00127494 179.661 -0.0204881 179.812 0.0201183 179.955L16.3144 236.887C16.3553 237.029 16.4552 237.151 16.5922 237.225C16.7292 237.299 16.8921 237.319 17.0451 237.281L63.201 225.833C63.354 225.795 63.4844 225.702 63.5638 225.574C63.6431 225.447 63.6649 225.295 63.6242 225.153L47.33 168.22C47.2891 168.078 47.1892 167.957 47.0522 167.883C46.9152 167.809 46.7523 167.789 46.5993 167.826L0.443354 179.275Z" fill="#F2F2F2"/>
<path d="M11.7851 188.677C11.1487 188.835 10.8219 189.629 11.0561 190.448C11.2903 191.266 11.9984 191.804 12.6348 191.646L42.6362 184.205C43.2726 184.047 43.5994 183.252 43.3652 182.434C43.131 181.616 42.4229 181.078 41.7865 181.236L11.7851 188.677Z" fill="white"/>
<path d="M13.6297 195.122C12.9933 195.28 12.6665 196.074 12.9007 196.893C13.1349 197.711 13.8431 198.249 14.4794 198.091L44.4808 190.65C45.1172 190.492 45.444 189.697 45.2098 188.879C44.9756 188.061 44.2675 187.523 43.6311 187.681L13.6297 195.122Z" fill="white"/>
<path d="M15.4744 201.567C14.838 201.725 14.5111 202.52 14.7453 203.338C14.9796 204.156 15.6877 204.694 16.3241 204.536L46.3255 197.095C46.9619 196.937 47.2887 196.143 47.0545 195.324C46.8203 194.506 46.1122 193.968 45.4758 194.126L15.4744 201.567Z" fill="white"/>
<path d="M17.319 208.013C16.6826 208.17 16.3557 208.965 16.59 209.783C16.8242 210.602 17.5323 211.139 18.1687 210.981L48.1701 203.54C48.8064 203.382 49.1333 202.588 48.8991 201.769C48.6649 200.951 47.9567 200.413 47.3203 200.571L17.319 208.013Z" fill="white"/>
<path d="M19.1636 214.458C18.5273 214.616 18.2004 215.41 18.4346 216.228C18.6688 217.047 19.377 217.585 20.0134 217.427L50.0147 209.985C50.6511 209.828 50.978 209.033 50.7438 208.215C50.5096 207.396 49.8014 206.859 49.165 207.017L19.1636 214.458Z" fill="white"/>
<path d="M21.0083 220.903C20.3719 221.061 20.045 221.855 20.2792 222.674C20.5134 223.492 21.2216 224.03 21.858 223.872L51.8594 216.431C52.4957 216.273 52.8226 215.478 52.5884 214.66C52.3542 213.842 51.646 213.304 51.0096 213.462L21.0083 220.903Z" fill="white"/>
<path d="M118.398 379.871C118.398 379.942 118.666 380 118.995 380H182.285C182.615 380 182.882 379.942 182.882 379.871V369.568C182.882 369.497 182.615 369.439 182.285 369.439H118.995C118.666 369.439 118.398 369.497 118.398 369.568V379.871Z" fill="#F2F2F2"/>
<path d="M131.078 378.068C131.078 378.21 131.818 378.326 132.728 378.326C133.638 378.326 134.378 378.21 134.378 378.068V371.371C134.378 371.229 133.638 371.113 132.728 371.113C131.818 371.113 131.078 371.229 131.078 371.371V378.068Z" fill="white"/>
<path d="M138.243 378.068C138.243 378.21 138.983 378.326 139.893 378.326C140.803 378.326 141.543 378.21 141.543 378.068V371.371C141.543 371.229 140.803 371.113 139.893 371.113C138.983 371.113 138.243 371.229 138.243 371.371V378.068Z" fill="white"/>
<path d="M145.408 378.068C145.408 378.21 146.148 378.326 147.058 378.326C147.968 378.326 148.708 378.21 148.708 378.068V371.371C148.708 371.229 147.968 371.113 147.058 371.113C146.148 371.113 145.408 371.229 145.408 371.371V378.068Z" fill="white"/>
<path d="M152.573 378.068C152.573 378.21 153.313 378.326 154.223 378.326C155.132 378.326 155.873 378.21 155.873 378.068V371.371C155.873 371.229 155.132 371.113 154.223 371.113C153.313 371.113 152.573 371.229 152.573 371.371V378.068Z" fill="white"/>
<path d="M159.737 378.068C159.737 378.21 160.478 378.326 161.388 378.326C162.297 378.326 163.038 378.21 163.038 378.068V371.371C163.038 371.229 162.297 371.113 161.388 371.113C160.478 371.113 159.737 371.229 159.737 371.371V378.068Z" fill="white"/>
<path d="M166.902 378.068C166.902 378.21 167.643 378.326 168.553 378.326C169.462 378.326 170.203 378.21 170.203 378.068V371.371C170.203 371.229 169.462 371.113 168.553 371.113C167.643 371.113 166.902 371.229 166.902 371.371V378.068Z" fill="white"/>
<path d="M2.13646 138.19C1.99688 138.259 1.89264 138.378 1.84662 138.519C1.80059 138.66 1.81654 138.812 1.89096 138.942L31.6991 190.917C31.7738 191.047 31.9008 191.144 32.0522 191.186C32.2037 191.229 32.3673 191.214 32.507 191.145L74.6437 170.202C74.7832 170.133 74.8875 170.015 74.9335 169.874C74.9795 169.733 74.9636 169.58 74.8892 169.45L45.081 117.476C45.0063 117.346 44.8793 117.249 44.7279 117.206C44.5764 117.163 44.4128 117.178 44.2731 117.247L2.13646 138.19Z" fill="#E6E6E6"/>
<path d="M6.05315 139.709L33.3306 187.27L70.7269 168.684L43.4495 121.122L6.05315 139.709ZM3.68351 140.886L3.68875 140.884L3.68292 140.887L3.68351 140.886Z" fill="white"/>
<path d="M15.4821 144.938C14.9012 145.227 14.7775 146.069 15.2059 146.817C15.6344 147.564 16.4556 147.937 17.0366 147.648L44.4254 134.035C45.0064 133.747 45.1301 132.904 44.7016 132.157C44.2731 131.41 43.4519 131.036 42.871 131.325L15.4821 144.938Z" fill="#87C2D8"/>
<path d="M18.8566 150.822C18.2757 151.11 18.152 151.953 18.5805 152.7C19.0089 153.447 19.8301 153.821 20.4111 153.532L47.7999 139.919C48.3809 139.63 48.5046 138.787 48.0761 138.04C47.6476 137.293 46.8264 136.92 46.2455 137.209L18.8566 150.822Z" fill="#87C2D8"/>
<path d="M22.2312 156.706C21.6502 156.994 21.5265 157.837 21.955 158.584C22.3834 159.331 23.2047 159.705 23.7856 159.416L51.1745 145.803C51.7554 145.514 51.8792 144.672 51.4507 143.924C51.0222 143.177 50.201 142.804 49.62 143.093L22.2312 156.706Z" fill="#87C2D8"/>
<path d="M25.6057 162.589C25.0247 162.878 24.901 163.721 25.3295 164.468C25.758 165.215 26.5792 165.589 27.1601 165.3L54.549 151.687C55.1299 151.398 55.2536 150.555 54.8251 149.808C54.3967 149.061 53.5755 148.688 52.9945 148.977L25.6057 162.589Z" fill="#87C2D8"/>
<path d="M28.9802 168.473C28.3992 168.762 28.2755 169.605 28.704 170.352C29.1325 171.099 29.9537 171.473 30.5346 171.184L57.9235 157.571C58.5044 157.282 58.6281 156.439 58.1997 155.692C57.7712 154.945 56.95 154.572 56.369 154.861L28.9802 168.473Z" fill="#87C2D8"/>
<path d="M32.3546 174.357C31.7737 174.646 31.65 175.489 32.0784 176.236C32.5069 176.983 33.3281 177.356 33.9091 177.068L61.2979 163.455C61.8789 163.166 62.0026 162.323 61.5741 161.576C61.1457 160.829 60.3244 160.456 59.7435 160.744L32.3546 174.357Z" fill="#87C2D8"/>
<path d="M411.584 271.011C411.448 270.936 411.285 270.914 411.132 270.951C410.979 270.988 410.847 271.08 410.766 271.206L378.568 321.93C378.487 322.057 378.464 322.209 378.504 322.351C378.543 322.494 378.642 322.616 378.778 322.691L419.9 345.314C420.037 345.389 420.199 345.41 420.353 345.374C420.506 345.337 420.637 345.245 420.718 345.118L452.917 294.395C452.997 294.268 453.02 294.116 452.981 293.973C452.942 293.831 452.843 293.708 452.707 293.633L411.584 271.011Z" fill="#E6E6E6"/>
<path d="M412.227 274.915L382.762 321.332L419.258 341.41L448.723 294.992L412.227 274.915ZM409.914 273.643L409.919 273.646L409.914 273.642L409.914 273.643Z" fill="white"/>
<path d="M412.33 285.131C411.763 284.82 410.925 285.159 410.462 285.889C410 286.618 410.084 287.465 410.651 287.777L437.38 302.481C437.947 302.793 438.785 302.453 439.248 301.724C439.711 300.995 439.627 300.148 439.06 299.836L412.33 285.131Z" fill="#87C2D8"/>
<path d="M408.685 290.874C408.118 290.562 407.28 290.902 406.817 291.631C406.354 292.36 406.439 293.207 407.006 293.519L433.735 308.224C434.302 308.536 435.14 308.196 435.603 307.467C436.066 306.738 435.981 305.89 435.414 305.578L408.685 290.874Z" fill="#87C2D8"/>
<path d="M405.04 296.616C404.473 296.304 403.635 296.644 403.172 297.373C402.709 298.103 402.794 298.95 403.36 299.262L430.09 313.966C430.657 314.278 431.495 313.938 431.958 313.209C432.421 312.48 432.336 311.633 431.769 311.321L405.04 296.616Z" fill="#87C2D8"/>
<path d="M401.394 302.359C400.827 302.047 399.99 302.386 399.527 303.116C399.064 303.845 399.148 304.692 399.715 305.004L426.445 319.708C427.012 320.02 427.85 319.68 428.313 318.951C428.775 318.222 428.691 317.375 428.124 317.063L401.394 302.359Z" fill="#87C2D8"/>
<path d="M397.749 308.101C397.182 307.789 396.345 308.129 395.882 308.858C395.419 309.587 395.503 310.434 396.07 310.746L422.8 325.451C423.367 325.762 424.205 325.423 424.667 324.693C425.13 323.964 425.046 323.117 424.479 322.805L397.749 308.101Z" fill="#87C2D8"/>
<path d="M394.104 313.843C393.537 313.531 392.699 313.871 392.236 314.6C391.774 315.329 391.858 316.176 392.425 316.488L419.155 331.193C419.722 331.505 420.559 331.165 421.022 330.436C421.485 329.707 421.401 328.86 420.834 328.548L394.104 313.843Z" fill="#87C2D8"/>
<path d="M263.08 178.701L262.459 182.28L255.915 219.832L251.807 232.044L250.362 236.341L249.15 239.954L234.42 283.753L230.379 292.593C228.161 293.356 226.255 294.746 224.928 296.567C223.6 298.388 222.918 300.55 222.975 302.751C223.032 304.951 223.827 307.08 225.247 308.839C226.668 310.598 228.644 311.9 230.898 312.563C233.153 313.226 235.574 313.216 237.822 312.535C240.07 311.854 242.034 310.536 243.438 308.765C244.842 306.994 245.616 304.859 245.653 302.658C245.689 300.457 244.986 298.301 243.642 296.491L272.472 234.056L273.54 231.922L276.812 225.391L282.992 181.986L283.38 179.257L263.08 178.701Z" fill="#FFB8B8"/>
<path d="M286.963 183.147C277.579 180.008 268.578 179.675 260.094 183.147L262.863 160.805C262.762 158.015 263.84 155.3 265.867 153.242C267.894 151.185 270.707 149.95 273.701 149.803C276.733 149.655 279.704 150.633 281.96 152.524C284.217 154.415 285.574 157.062 285.734 159.884L285.736 159.921L286.963 183.147Z" fill="#87C2D8"/>
</svg>
