<svg width="396" height="278" viewBox="0 0 396 278" fill="none" xmlns="http://www.w3.org/2000/svg">
<g clip-path="url(#clip0)">
<path d="M390.669 95.1192C391.134 96.6284 391.569 98.1454 391.976 99.6699H253.72V95.1192H390.669Z" fill="#E6E6E6"/>
<path d="M386.262 83.1235C384.036 77.8993 381.44 72.789 378.489 67.8194C377.581 66.2871 376.638 64.7702 375.66 63.2686C375.499 63.011 375.328 62.7533 375.156 62.4956V96.3616H387.103V85.1389L386.262 83.1235Z" fill="#E6E6E6"/>
<path d="M378.489 67.8193H375.156V63.2686H375.66C376.64 64.7687 377.583 66.2856 378.489 67.8193Z" fill="#CCCCCC"/>
<path d="M386.262 83.1234H375.156V87.6741H387.103V85.1388L386.262 83.1234Z" fill="#CCCCCC"/>
<path d="M368.687 57.0646H356.742V96.3621H368.687V57.0646Z" fill="#E6E6E6"/>
<path d="M368.687 63.2695H356.742V67.8197H368.687V63.2695Z" fill="#CCCCCC"/>
<path d="M368.687 83.125H356.742V87.6752H368.687V83.125Z" fill="#CCCCCC"/>
<path d="M314.214 56.8359H271.364C270.704 56.8367 270.071 57.0551 269.604 57.4433C269.137 57.8314 268.874 58.3576 268.873 58.9065V94.521C268.874 94.7235 268.909 94.9249 268.978 95.1192C269.134 95.5447 269.45 95.9175 269.879 96.1826C270.309 96.4477 270.829 96.591 271.364 96.5916H314.214C314.749 96.5911 315.27 96.4477 315.699 96.1826C316.129 95.9175 316.445 95.5447 316.6 95.1192C316.669 94.9249 316.705 94.7235 316.705 94.521V58.9065C316.704 58.3576 316.442 57.8314 315.975 57.4433C315.508 57.0551 314.875 56.8367 314.214 56.8359Z" fill="#E6E6E6"/>
<path d="M311.17 59.3666H274.41C273.749 59.3675 273.116 59.5859 272.649 59.974C272.182 60.3622 271.919 60.8883 271.918 61.4372V91.9902C271.919 92.5391 272.182 93.0653 272.649 93.4535C273.116 93.8416 273.749 94.06 274.41 94.0608H311.17C311.83 94.06 312.463 93.8416 312.93 93.4535C313.397 93.0653 313.66 92.5391 313.661 91.9902V61.4372C313.66 60.8883 313.397 60.3622 312.93 59.974C312.463 59.5859 311.83 59.3675 311.17 59.3666Z" fill="white"/>
<path d="M304.758 64.6951H280.82C280.16 64.6959 279.526 64.9143 279.06 65.3025C278.593 65.6906 278.33 66.2168 278.329 66.7657V86.6619C278.33 87.2108 278.593 87.737 279.06 88.1252C279.526 88.5133 280.16 88.7317 280.82 88.7325H304.758C305.418 88.7297 306.05 88.5106 306.516 88.1229C306.983 87.7352 307.246 87.2102 307.25 86.6619V66.7657C307.249 66.2168 306.986 65.6906 306.519 65.3025C306.052 64.9143 305.419 64.6959 304.758 64.6951Z" fill="#CCCCCC"/>
<path d="M303.282 83.1526L298.226 75.8737C298.129 75.7338 297.989 75.6176 297.821 75.5368C297.653 75.4561 297.462 75.4136 297.267 75.4136C297.073 75.4136 296.882 75.4561 296.714 75.5368C296.545 75.6176 296.406 75.7338 296.308 75.8737L292.616 81.1888L287.774 74.219C287.677 74.0791 287.537 73.9629 287.369 73.8821C287.201 73.8014 287.01 73.7588 286.815 73.7589C286.621 73.7589 286.43 73.8014 286.262 73.8822C286.094 73.9629 285.954 74.0791 285.857 74.219L280.8 81.4979L274.785 90.1572H286.386L285.237 91.8119H309.298L303.282 83.1526Z" fill="white"/>
<path d="M301.498 71.9562C303.422 71.9562 304.982 70.6598 304.982 69.0606C304.982 67.4614 303.422 66.165 301.498 66.165C299.574 66.165 298.014 67.4614 298.014 69.0606C298.014 70.6598 299.574 71.9562 301.498 71.9562Z" fill="white"/>
<path d="M395.956 127.273C395.917 125.488 395.832 123.712 395.701 121.945C395.646 121.098 395.58 120.256 395.497 119.414H372.123C371.462 119.415 370.829 119.634 370.362 120.022C369.895 120.41 369.633 120.936 369.632 121.485V157.099C369.63 157.262 369.654 157.425 369.703 157.583C369.834 158.034 370.144 158.436 370.583 158.724C371.021 159.012 371.564 159.169 372.123 159.17H393.669C393.78 158.645 393.885 158.112 393.98 157.583C394.04 157.27 394.101 156.952 394.157 156.639C394.29 155.889 394.417 155.139 394.533 154.389C394.699 153.368 394.849 152.342 394.982 151.311C395.469 147.616 395.782 143.881 395.923 140.107V140.102C395.973 138.68 395.998 137.252 396 135.818V130.297C396 129.284 395.989 128.277 395.956 127.273Z" fill="#E6E6E6"/>
<path d="M395.956 127.273C395.917 125.488 395.832 123.712 395.701 121.945H375.167C374.507 121.946 373.874 122.164 373.407 122.552C372.94 122.941 372.677 123.467 372.676 124.016V154.569C372.677 155.118 372.94 155.644 373.407 156.032C373.874 156.42 374.507 156.638 375.167 156.639H394.157C394.289 155.889 394.417 155.139 394.533 154.389C394.699 153.368 394.849 152.342 394.981 151.311C395.468 147.616 395.782 143.881 395.923 140.107V140.102C395.972 138.68 395.998 137.252 396 135.818V130.297C396 129.284 395.989 128.277 395.956 127.273Z" fill="white"/>
<path d="M395.956 127.273H381.578C380.918 127.274 380.285 127.493 379.818 127.881C379.351 128.269 379.088 128.795 379.087 129.344V149.24C379.088 149.789 379.351 150.315 379.818 150.704C380.285 151.092 380.918 151.31 381.578 151.311H394.981C395.469 147.616 395.782 143.881 395.923 140.107V140.102C395.972 138.68 395.998 137.252 396 135.818V130.297C396 129.284 395.989 128.277 395.956 127.273Z" fill="#CCCCCC"/>
<path d="M395.922 140.107C395.784 143.88 395.47 147.615 394.981 151.311C394.848 152.342 394.699 153.368 394.533 154.389H385.996L387.148 152.737H375.544L379.087 147.634L381.556 144.078L386.616 136.798C386.712 136.658 386.852 136.541 387.02 136.46C387.188 136.379 387.379 136.336 387.574 136.336C387.768 136.336 387.959 136.379 388.128 136.46C388.296 136.541 388.435 136.658 388.532 136.798L393.376 143.769L395.922 140.107Z" fill="white"/>
<path d="M353.975 37.2111H253.72V32.6604H349.003C350.697 34.1466 352.355 35.6636 353.975 37.2111Z" fill="#E6E6E6"/>
<path d="M306.973 5.65045C311.058 7.5186 315.041 9.52018 318.92 11.6552V33.8982H306.973V5.65045Z" fill="#E6E6E6"/>
<path d="M318.917 20.6628H306.973V25.213H318.917V20.6628Z" fill="#CCCCCC"/>
<path d="M337.333 23.3427V33.8982H325.386V15.3961C328.171 17.0848 330.893 18.841 333.552 20.6647C334.825 21.5389 336.085 22.4316 337.333 23.3427Z" fill="#E6E6E6"/>
<path d="M337.333 23.3427V25.2108H325.386V20.6647H333.552C334.825 21.5389 336.085 22.4316 337.333 23.3427Z" fill="#CCCCCC"/>
<path d="M294.777 0.579775C297.938 1.7623 301.046 3.02307 304.1 4.36209L301.642 8.4849L293.476 22.2015L291.046 26.2783L287.242 32.6604L286.406 34.0638L283.001 32.6604L275.704 29.6557L280.338 21.8702H280.344L282.769 17.7934L290.94 4.0768L293.343 0.0460163L293.371 0L294.777 0.579775Z" fill="#E6E6E6"/>
<path d="M304.072 4.4035L301.642 8.4849L290.94 4.0768L293.343 0.0460135L293.371 0L294.777 0.579771L304.072 4.4035Z" fill="#CCCCCC"/>
<path d="M282.769 17.7947L280.34 21.8726L291.045 26.2774L293.474 22.1996L282.769 17.7947Z" fill="#CCCCCC"/>
<path d="M393.979 157.583C393.885 158.112 393.78 158.645 393.669 159.17C393.475 160.164 393.265 161.149 393.038 162.133H253.72V157.583H393.979Z" fill="#E6E6E6"/>
<path d="M318.917 119.527H306.973V158.824H318.917V119.527Z" fill="#E6E6E6"/>
<path d="M318.917 125.732H306.973V130.282H318.917V125.732Z" fill="#CCCCCC"/>
<path d="M318.917 145.587H306.973V150.137H318.917V145.587Z" fill="#CCCCCC"/>
<path d="M337.332 119.527H325.388V158.824H337.332V119.527Z" fill="#E6E6E6"/>
<path d="M337.332 125.732H325.388V130.282H337.332V125.732Z" fill="#CCCCCC"/>
<path d="M337.332 145.587H325.388V150.137H337.332V145.587Z" fill="#CCCCCC"/>
<path d="M296.681 119.364L275.703 154.582L286.407 158.987L307.386 123.769L296.681 119.364Z" fill="#E6E6E6"/>
<path d="M293.368 124.925L290.939 129.003L301.644 133.408L304.073 129.33L293.368 124.925Z" fill="#CCCCCC"/>
<path d="M282.769 142.719L280.34 146.797L291.045 151.202L293.474 147.124L282.769 142.719Z" fill="#CCCCCC"/>
<path d="M162.099 175.119C162.598 175.358 163.074 175.629 163.521 175.93L212.809 163.181L215.589 153.018L234.592 154.499L231.775 172.889C231.548 174.375 230.746 175.759 229.492 176.834C228.237 177.909 226.597 178.617 224.817 178.851L166.813 186.484C165.967 188.189 164.516 189.639 162.654 190.641C160.792 191.644 158.607 192.152 156.389 192.097C154.171 192.043 152.026 191.428 150.239 190.335C148.451 189.243 147.107 187.724 146.384 185.98C145.66 184.237 145.593 182.352 146.19 180.576C146.787 178.8 148.021 177.217 149.727 176.038C151.433 174.859 153.53 174.139 155.74 173.975C157.95 173.811 160.168 174.21 162.099 175.119Z" fill="#FFB8B8"/>
<path d="M243.374 160.596L243.047 155.958V155.954L242.959 154.684L241.995 141.027C242.284 138.18 241.203 135.354 238.99 133.168C236.776 130.982 233.611 129.613 230.187 129.363C229.202 129.289 228.21 129.311 227.23 129.427C224.322 129.769 221.637 130.917 219.612 132.686C217.587 134.455 216.341 136.741 216.075 139.173L214.076 146.084L210.583 158.172C210.335 159.017 210.438 159.908 210.874 160.699C211.31 161.49 212.054 162.137 212.986 162.534C213.524 162.769 214.113 162.913 214.719 162.957L220.543 163.39L226.151 163.804L232.623 164.282L233.088 164.314L234.283 164.406L238.286 164.701H238.297C238.966 164.746 239.638 164.672 240.27 164.485C240.902 164.298 241.478 164.001 241.962 163.615C242.315 163.33 242.611 163.001 242.842 162.639C243.246 162.013 243.43 161.305 243.374 160.596V160.596Z" fill="#07730A"/>
<path d="M297.46 104.355C297.46 120.104 279.939 117.722 258.327 117.722C236.715 117.722 219.194 120.104 219.194 104.355C219.194 88.607 227.753 60.692 258.327 60.692C289.955 60.692 297.46 88.607 297.46 104.355Z" fill="#2F2E41"/>
<path d="M276.816 111.285C287.099 102.738 287.099 88.8805 276.816 80.3335C266.532 71.7864 249.86 71.7864 239.576 80.3335C229.293 88.8805 229.293 102.738 239.576 111.285C249.86 119.832 266.532 119.832 276.816 111.285Z" fill="#FFB8B8"/>
<path d="M295.264 126.896C294.757 126.49 294.219 126.112 293.653 125.764C290.073 123.516 285.574 122.526 281.125 123.008L232.6 128.111C228.155 128.57 224.1 130.449 221.294 133.35C218.489 136.252 217.153 139.948 217.57 143.654C217.708 144.943 217.863 146.3 218.035 147.713C218.256 149.484 218.505 151.343 218.793 153.266C219.269 156.501 219.851 159.915 220.543 163.389C221.146 166.38 221.833 169.413 222.619 172.408C222.846 173.273 223.082 174.135 223.327 174.994C223.327 174.997 223.327 174.999 223.328 175.001C223.329 175.004 223.331 175.006 223.333 175.008C223.36 175.114 223.388 175.22 223.421 175.321C223.42 175.329 223.422 175.337 223.427 175.344C223.77 176.54 224.13 177.723 224.507 178.891C224.65 179.324 224.789 179.752 224.933 180.175C225.32 181.325 225.73 182.453 226.151 183.562C229.312 191.812 233.492 198.838 239.011 202.575C239.083 202.63 239.155 202.676 239.233 202.726L239.454 202.869L239.775 202.786L241.137 202.45L242.3 202.156L257.447 198.369L261.217 197.426L273.33 194.393H273.335L284.413 191.623L285.764 191.283L295.281 188.904L295.585 185.95L295.995 182.029L296.239 179.674L298.165 161.093L299.289 150.253L300.507 138.482C300.733 136.348 300.379 134.199 299.472 132.193C298.564 130.188 297.126 128.377 295.264 126.896Z" fill="#2F2E41"/>
<path d="M322.396 216.802C322.269 216.494 322.147 216.185 322.02 215.882C316.329 202.078 307.936 191.637 295.585 185.95C295.579 185.95 295.579 185.945 295.574 185.945L295.363 185.849L284.601 188.945L283.272 189.327L281.888 189.728L281.872 189.732L271.796 192.631L271.779 192.636L263.874 194.909H263.868L256.555 197.012H256.549L254.85 197.504L242.067 201.18L240.583 201.608L239.254 201.99L239.049 202.05L239.011 202.575L238.097 215.882L238.036 216.802L236.896 233.408L199.023 278H224.932C233.614 278.002 242.283 277.452 250.864 276.357L275.173 254.584C275.377 254.408 275.634 254.283 275.917 254.22C276.201 254.158 276.499 254.161 276.781 254.229C277.063 254.297 277.316 254.428 277.515 254.607C277.714 254.786 277.849 255.007 277.908 255.246L281.479 269.971C299.07 264.8 315.527 257.275 330.197 247.691C328.492 236.257 326 225.834 322.396 216.802Z" fill="#975959"/>
<path d="M227.771 93.6622H238.186L242.781 82.9692L243.7 93.6622H248.678L251.358 87.4246L251.894 93.6622H288.883C288.883 90.6197 288.162 87.607 286.761 84.7961C285.36 81.9852 283.307 79.4312 280.718 77.2798C278.13 75.1284 275.057 73.4218 271.675 72.2575C268.293 71.0932 264.668 70.494 261.007 70.494H255.647C248.254 70.494 241.163 72.9349 235.936 77.2798C230.708 81.6247 227.771 87.5176 227.771 93.6622Z" fill="#7F0505"/>
<path d="M163.71 209.618C162.01 210.212 160.173 210.489 158.33 210.429C156.487 210.369 154.683 209.974 153.043 209.271C151.404 208.569 149.97 207.577 148.842 206.364C147.714 205.151 146.919 203.747 146.515 202.252L101.968 198.059L116.9 183.196L156.914 189.457C159.982 189.058 163.119 189.609 165.731 191.005C168.343 192.4 170.248 194.543 171.086 197.029C171.924 199.514 171.636 202.168 170.276 204.488C168.917 206.809 166.58 208.634 163.71 209.618L163.71 209.618Z" fill="#A0616A"/>
<path d="M139.692 182.108L120.863 179.31L119.496 179.108C118.403 178.945 117.364 178.593 116.447 178.073C115.53 177.553 114.756 176.878 114.175 176.092C113.594 175.306 113.22 174.427 113.077 173.512C112.934 172.597 113.025 171.667 113.346 170.784L122.591 145.251L122.868 144.492C124.022 141.246 123.816 137.771 122.285 134.636C120.753 131.5 117.986 128.89 114.436 127.232C112.033 126.123 109.355 125.49 106.61 125.381C103.865 125.273 101.126 125.692 98.6079 126.606C96.0894 127.521 93.8587 128.906 92.0891 130.653C90.3195 132.401 89.0587 134.465 88.405 136.683L76.6131 176.683L76.1757 178.164C75.3521 180.955 75.2623 183.861 75.9124 186.684C76.5625 189.506 77.9372 192.179 79.9429 194.52C81.9485 196.861 84.5379 198.815 87.5345 200.248C90.5311 201.682 93.8644 202.562 97.3072 202.828C97.3458 202.832 97.3791 202.832 97.418 202.837L104.477 203.357L113.633 204.033L125.149 204.884L135.894 205.681C137.302 205.787 138.706 205.449 139.828 204.735C140.95 204.02 141.708 202.982 141.951 201.825C141.967 201.76 141.978 201.696 141.99 201.631L144.271 187.478L144.293 187.349C144.489 186.15 144.12 184.935 143.262 183.958C142.405 182.981 141.125 182.318 139.692 182.108Z" fill="#CCCCCC"/>
<path d="M110.683 74.8648C103.167 87.1471 97.2432 99.8152 80.664 99.8152C72.7024 99.8152 65.0668 97.1865 59.4371 92.5074C53.8074 87.8283 50.6447 81.482 50.6447 74.8648C50.6447 61.085 64.0859 50.0868 80.664 49.9143C97.5133 49.739 124.673 52.0036 110.683 74.8648Z" fill="#2F2E41"/>
<path d="M129.539 235.543L128.858 229.893L128.348 229.916L38.8342 233.5L39.0666 239.22L39.46 249.016C53.3109 257.785 68.6924 264.745 85.0722 269.653L85.6537 265.908C85.7045 265.602 85.8806 265.321 86.1523 265.112C86.424 264.902 86.7745 264.777 87.1445 264.757C87.5144 264.738 87.8812 264.825 88.1825 265.005C88.4839 265.184 88.7013 265.445 88.7981 265.742L90.5641 271.213C104.833 275.038 119.65 277.267 134.627 277.844L129.539 235.543Z" fill="#79A5D9"/>
<path d="M100.761 93.8908C111.045 85.3438 111.045 71.4863 100.761 62.9393C90.4777 54.3923 73.8049 54.3923 63.5215 62.9393C53.238 71.4863 53.238 85.3438 63.5215 93.8908C73.8049 102.438 90.4777 102.438 100.761 93.8908Z" fill="#A0616A"/>
<path d="M134.682 230.275L129.461 216.802L129.372 216.572L129.106 215.882L127.617 212.044C127.136 210.797 126.676 209.546 126.25 208.289C125.857 207.158 125.49 206.023 125.148 204.884C124.661 203.302 124.218 201.713 123.82 200.117C122.469 194.757 121.568 189.325 121.123 183.861C121.001 182.347 120.915 180.83 120.863 179.31C120.539 169.994 121.548 160.678 123.869 151.559C125.89 143.674 124.811 135.458 120.79 128.121C116.77 120.784 110.02 114.714 101.536 110.805C95.9694 108.248 89.8077 106.712 83.4663 106.3C83.029 106.273 82.5916 106.25 82.1488 106.227C75.4501 105.875 68.7418 106.778 62.5192 108.87C56.2966 110.961 50.7186 114.187 46.1969 118.31C43.7751 120.503 41.6716 122.924 39.9298 125.525C35.097 132.762 33.2828 141.125 34.7702 149.309L40.9927 184.036L39.5757 198.654L37.9038 215.882L37.8151 216.802L36.0323 235.171C35.9479 236.027 36.1973 236.883 36.7437 237.612C37.2901 238.341 38.1044 238.905 39.0662 239.22C39.6295 239.407 40.2311 239.503 40.8379 239.5C40.9265 239.5 41.0095 239.5 41.0982 239.496L129.538 235.543L130.347 235.507C131.084 235.475 131.803 235.302 132.448 235.003C133.093 234.703 133.646 234.284 134.065 233.778C134.484 233.273 134.758 232.694 134.865 232.086C134.971 231.479 134.909 230.859 134.682 230.275L134.682 230.275Z" fill="#CCCCCC"/>
<path d="M110.085 66.0463C104.067 69.4933 96.9251 71.3278 89.6171 71.3036C92.2239 72.8059 95.1917 73.8207 98.3158 74.278C88.5992 76.0103 78.557 76.0572 68.8176 74.4158C66.6527 74.1272 64.5637 73.5309 62.6424 72.653C60.7723 71.7095 59.208 70.2071 58.8308 68.4161C58.1836 65.3432 61.0645 62.5514 64.0584 60.6698C68.6423 57.833 73.9276 55.8785 79.5318 54.9478C85.1361 54.017 90.9192 54.1332 96.4627 55.288C100.082 56.0656 103.709 57.3796 106.06 59.7957C108.411 62.2118 109.107 65.9366 106.867 68.4245L110.085 66.0463Z" fill="#824444"/>
<path d="M111.43 205.065C109.746 205.689 107.917 205.999 106.073 205.972C104.229 205.946 102.415 205.583 100.757 204.911C99.0999 204.238 97.6402 203.271 96.481 202.079C95.3217 200.887 94.491 199.498 94.0475 198.01L49.4015 194.619L63.9436 179.492L104.111 185.031C107.168 184.577 110.318 185.071 112.966 186.419C115.614 187.768 117.575 189.876 118.477 192.346C119.379 194.815 119.16 197.474 117.862 199.818C116.563 202.163 114.275 204.029 111.43 205.065L111.43 205.065Z" fill="#A0616A"/>
<path d="M86.7053 177.994L76.6128 176.683L66.4317 175.358C65.3352 175.215 64.2874 174.882 63.357 174.379C62.4267 173.876 61.6349 173.215 61.0336 172.44C60.4323 171.665 60.0351 170.792 59.8682 169.88C59.7013 168.969 59.7684 168.038 60.0651 167.149L68.9009 140.691C69.9701 137.426 69.6738 133.955 68.0606 130.848C66.4474 127.741 63.6128 125.181 60.0208 123.588C57.5943 122.512 54.8997 121.92 52.1504 121.861C49.4012 121.801 46.6729 122.274 44.1819 123.243C41.6833 124.196 39.4852 125.619 37.7607 127.399C36.0362 129.178 34.8325 131.267 34.2444 133.499L23.1001 175.192C22.3494 178.004 22.3386 180.918 23.0683 183.734C23.7981 186.551 25.2512 189.203 27.3284 191.509C29.4055 193.815 32.0575 195.721 35.103 197.096C38.1485 198.472 41.5155 199.284 44.9737 199.478L83.522 201.627C84.9315 201.707 86.3258 201.344 87.4289 200.61C88.532 199.877 89.2635 198.825 89.4787 197.665C89.4955 197.601 89.5009 197.536 89.512 197.472L91.4221 183.281L91.4386 183.152C91.6032 181.951 91.2025 180.743 90.3203 179.782C89.4381 178.82 88.1427 178.18 86.7053 177.994Z" fill="#CCCCCC"/>
<path d="M257.484 155.999L255.174 157.047L226.711 169.955L224.401 171.002C223.28 171.512 222.448 172.37 222.088 173.389C221.727 174.408 221.868 175.504 222.479 176.437L243.674 208.724C244.287 209.656 245.32 210.347 246.546 210.647C247.772 210.946 249.091 210.829 250.213 210.322L250.219 210.319L283.29 195.322L283.296 195.319C284.417 194.809 285.249 193.951 285.609 192.932C285.969 191.913 285.829 190.817 285.218 189.884L264.023 157.597C263.41 156.666 262.377 155.974 261.151 155.675C259.925 155.375 258.606 155.492 257.484 155.999Z" fill="#E6E6E6"/>
<path d="M258.148 157.012L255.412 158.253L227.801 170.774L225.065 172.015C224.267 172.378 223.674 172.989 223.418 173.714C223.161 174.44 223.261 175.221 223.696 175.885L244.891 208.172C245.328 208.835 246.064 209.328 246.937 209.541C247.81 209.754 248.749 209.671 249.548 209.309L249.554 209.307L282.625 194.309L282.631 194.307C283.429 193.944 284.022 193.332 284.278 192.607C284.535 191.881 284.435 191.101 284 190.436L262.805 158.15C262.368 157.486 261.632 156.994 260.759 156.78C259.886 156.567 258.947 156.65 258.148 157.012Z" fill="white"/>
<path d="M258.925 166.127C258.822 165.972 258.65 165.857 258.445 165.807C258.241 165.757 258.022 165.776 257.834 165.86L256.733 166.362L245.5 171.456C245.314 171.541 245.176 171.684 245.117 171.854C245.057 172.023 245.081 172.205 245.183 172.36C245.284 172.515 245.456 172.63 245.659 172.681C245.863 172.731 246.082 172.713 246.269 172.629L258.604 167.034C258.79 166.948 258.928 166.805 258.988 166.635C259.049 166.466 259.026 166.283 258.925 166.127Z" fill="#E6E6E6"/>
<path d="M263.127 166.785C263.077 166.708 263.009 166.641 262.927 166.586C262.845 166.531 262.751 166.49 262.65 166.466C262.549 166.442 262.444 166.434 262.339 166.444C262.235 166.454 262.134 166.481 262.042 166.523L246.801 173.434C246.708 173.476 246.627 173.533 246.561 173.601C246.495 173.669 246.446 173.748 246.416 173.832C246.387 173.916 246.377 174.003 246.388 174.09C246.4 174.177 246.432 174.262 246.482 174.338C246.533 174.415 246.601 174.483 246.683 174.538C246.765 174.593 246.859 174.633 246.96 174.658C247.061 174.683 247.167 174.69 247.272 174.681C247.376 174.671 247.478 174.645 247.57 174.603L248.279 174.281L252.713 172.27H252.719L262.806 167.692C262.899 167.65 262.982 167.594 263.048 167.526C263.115 167.457 263.165 167.379 263.195 167.294C263.225 167.21 263.234 167.122 263.223 167.034C263.211 166.947 263.178 166.862 263.127 166.785Z" fill="#E6E6E6"/>
<path d="M246.562 177.801L241.724 170.425C241.673 170.351 241.59 170.296 241.491 170.273C241.393 170.25 241.287 170.26 241.198 170.301L238.85 171.364L237.633 171.916L231.094 174.879L229.827 175.454C229.737 175.496 229.672 175.565 229.644 175.647C229.616 175.729 229.628 175.817 229.677 175.891L229.987 176.365L234.516 183.267C234.565 183.341 234.647 183.396 234.745 183.419C234.842 183.442 234.947 183.432 235.036 183.392L242.842 179.853L244.06 179.301L246.407 178.238C246.452 178.218 246.492 178.191 246.524 178.158C246.556 178.125 246.58 178.087 246.594 178.046C246.609 178.006 246.614 177.963 246.608 177.921C246.602 177.879 246.587 177.838 246.562 177.801Z" fill="#E6E6E6"/>
<path d="M265.042 175.486C264.94 175.332 264.769 175.217 264.566 175.167C264.362 175.117 264.143 175.136 263.957 175.22L247.227 182.807C247.079 182.874 246.96 182.979 246.888 183.105C246.815 183.231 246.792 183.373 246.822 183.511C246.834 183.583 246.862 183.651 246.906 183.714C246.948 183.777 247.002 183.835 247.066 183.884L247.072 183.889C247.196 183.981 247.351 184.04 247.516 184.056C247.682 184.073 247.849 184.046 247.996 183.981L264.726 176.393C264.819 176.351 264.901 176.294 264.966 176.225C265.032 176.157 265.081 176.078 265.111 175.994C265.14 175.91 265.149 175.822 265.137 175.735C265.125 175.647 265.093 175.563 265.042 175.486Z" fill="#E6E6E6"/>
<path d="M269.249 176.144C269.198 176.068 269.129 176 269.047 175.945C268.965 175.891 268.87 175.85 268.769 175.825C268.668 175.801 268.562 175.794 268.457 175.803C268.352 175.813 268.25 175.84 268.158 175.882L248.522 184.786C248.374 184.851 248.255 184.953 248.182 185.078C248.11 185.203 248.087 185.344 248.118 185.481V185.485C248.129 185.557 248.157 185.625 248.201 185.688C248.243 185.754 248.299 185.813 248.367 185.862C248.489 185.957 248.645 186.017 248.811 186.033C248.977 186.05 249.145 186.022 249.291 185.955L268.928 177.051C269.114 176.966 269.253 176.823 269.313 176.653C269.373 176.483 269.35 176.3 269.249 176.144Z" fill="#E6E6E6"/>
<path d="M241.623 190.193C243.503 190.193 245.028 188.926 245.028 187.363C245.028 185.8 243.503 184.533 241.623 184.533C239.742 184.533 238.218 185.8 238.218 187.363C238.218 188.926 239.742 190.193 241.623 190.193Z" fill="#E6E6E6"/>
<path d="M267.449 143.576L265.139 144.624L236.676 157.531L234.366 158.579C233.245 159.088 232.413 159.947 232.053 160.966C231.692 161.985 231.833 163.081 232.444 164.014L253.639 196.3C254.252 197.232 255.285 197.923 256.511 198.223C257.737 198.523 259.056 198.406 260.178 197.898L260.184 197.895L293.255 182.898L293.261 182.895C294.382 182.386 295.214 181.527 295.574 180.508C295.935 179.489 295.794 178.393 295.183 177.46L273.988 145.174C273.375 144.242 272.342 143.55 271.116 143.251C269.89 142.951 268.571 143.068 267.449 143.576Z" fill="#CCCCCC"/>
<path d="M268.113 144.588L265.376 145.829L237.766 158.35L235.03 159.591C234.232 159.954 233.639 160.565 233.383 161.291C233.126 162.016 233.226 162.797 233.661 163.461L254.856 195.748C255.293 196.411 256.029 196.904 256.902 197.117C257.775 197.33 258.714 197.247 259.513 196.886L259.519 196.883L292.589 181.886L292.596 181.883C293.394 181.52 293.986 180.909 294.243 180.183C294.499 179.457 294.399 178.677 293.964 178.013L272.769 145.726C272.333 145.062 271.597 144.57 270.724 144.357C269.851 144.143 268.912 144.227 268.113 144.588Z" fill="white"/>
<path d="M268.89 153.704C268.787 153.549 268.615 153.434 268.411 153.384C268.207 153.334 267.987 153.353 267.799 153.437L262.119 156.013L260.536 156.731L255.465 159.032C255.279 159.117 255.141 159.26 255.082 159.43C255.022 159.599 255.046 159.781 255.148 159.937C255.249 160.092 255.421 160.207 255.624 160.257C255.828 160.308 256.047 160.289 256.234 160.205L262.213 157.495L263.464 156.925L268.569 154.61C268.755 154.525 268.894 154.381 268.954 154.212C269.014 154.042 268.991 153.859 268.89 153.704Z" fill="#CCCCCC"/>
<path d="M273.092 154.362C273.042 154.285 272.974 154.217 272.892 154.162C272.81 154.107 272.716 154.067 272.615 154.042C272.514 154.018 272.408 154.01 272.304 154.02C272.199 154.03 272.098 154.057 272.007 154.099L264.084 157.693L262.866 158.245L256.765 161.011C256.673 161.053 256.592 161.109 256.526 161.177C256.46 161.246 256.41 161.324 256.381 161.408C256.351 161.492 256.342 161.58 256.353 161.667C256.365 161.754 256.397 161.838 256.447 161.915C256.498 161.992 256.566 162.059 256.648 162.114C256.73 162.169 256.824 162.21 256.925 162.234C257.026 162.259 257.132 162.267 257.237 162.257C257.341 162.248 257.443 162.221 257.535 162.179L263.636 159.414L264.854 158.862L272.771 155.268C272.864 155.227 272.946 155.17 273.013 155.102C273.08 155.034 273.13 154.955 273.16 154.871C273.19 154.786 273.199 154.698 273.187 154.611C273.176 154.523 273.143 154.439 273.092 154.362Z" fill="#CCCCCC"/>
<path d="M256.527 165.377L252.669 159.497L252.004 158.484L251.689 158.001C251.638 157.927 251.555 157.873 251.456 157.849C251.358 157.826 251.253 157.836 251.163 157.877L243.329 161.429L239.792 163.031C239.702 163.072 239.637 163.142 239.609 163.224C239.581 163.306 239.593 163.393 239.642 163.468L239.958 163.946L240.301 164.475L240.622 164.959V164.963L244.481 170.844C244.53 170.917 244.612 170.972 244.71 170.995C244.807 171.018 244.912 171.009 245.001 170.968L256.372 165.814C256.417 165.794 256.457 165.767 256.489 165.734C256.521 165.701 256.545 165.663 256.56 165.623C256.574 165.582 256.579 165.54 256.573 165.497C256.568 165.455 256.552 165.414 256.527 165.377Z" fill="#07730A"/>
<path d="M275.007 163.063C274.905 162.908 274.734 162.793 274.531 162.743C274.327 162.693 274.108 162.712 273.922 162.796L268.923 165.064L267.705 165.617L262.877 167.802L257.192 170.384C257.099 170.426 257.017 170.482 256.951 170.551C256.885 170.619 256.835 170.697 256.805 170.782C256.776 170.866 256.766 170.954 256.777 171.041C256.788 171.128 256.82 171.213 256.871 171.29C256.921 171.367 256.99 171.435 257.072 171.49C257.154 171.545 257.248 171.586 257.35 171.611C257.451 171.636 257.557 171.644 257.662 171.635C257.767 171.625 257.869 171.599 257.961 171.557L268.474 166.79L269.692 166.238L274.691 163.969C274.784 163.927 274.865 163.87 274.931 163.802C274.997 163.733 275.046 163.655 275.076 163.57C275.105 163.486 275.114 163.398 275.102 163.311C275.09 163.224 275.058 163.139 275.007 163.063Z" fill="#CCCCCC"/>
<path d="M279.215 163.721C279.164 163.644 279.095 163.576 279.013 163.522C278.931 163.467 278.836 163.426 278.735 163.402C278.633 163.377 278.527 163.37 278.423 163.38C278.318 163.389 278.216 163.416 278.124 163.459L270.224 167.043L269.006 167.595L258.487 172.362C258.395 172.404 258.313 172.461 258.246 172.529C258.18 172.597 258.13 172.675 258.1 172.759C258.07 172.844 258.061 172.932 258.072 173.019C258.083 173.106 258.115 173.191 258.166 173.268C258.216 173.345 258.285 173.413 258.367 173.468C258.449 173.522 258.544 173.563 258.645 173.588C258.747 173.612 258.853 173.62 258.958 173.61C259.063 173.6 259.164 173.573 259.257 173.531L269.77 168.764L270.988 168.212L278.894 164.627C279.08 164.542 279.219 164.399 279.279 164.229C279.339 164.059 279.316 163.877 279.215 163.721Z" fill="#CCCCCC"/>
<path d="M251.588 177.769C253.468 177.769 254.993 176.502 254.993 174.939C254.993 173.376 253.468 172.109 251.588 172.109C249.707 172.109 248.183 173.376 248.183 174.939C248.183 176.502 249.707 177.769 251.588 177.769Z" fill="#CCCCCC"/>
<path d="M253.876 190.85C254.449 190.897 255.017 190.981 255.574 191.102L294.189 162.631L291.692 152.417L309.745 147.27L316.28 164.995C316.808 166.427 316.763 167.962 316.151 169.371C315.54 170.78 314.395 171.986 312.889 172.808L263.797 199.596C263.87 201.439 263.265 203.257 262.064 204.808C260.863 206.358 259.123 207.568 257.075 208.277C255.026 208.985 252.767 209.159 250.597 208.774C248.427 208.389 246.449 207.464 244.927 206.122C243.405 204.78 242.411 203.085 242.076 201.262C241.742 199.439 242.083 197.575 243.054 195.917C244.026 194.259 245.581 192.886 247.514 191.981C249.447 191.076 251.666 190.681 253.876 190.85Z" fill="#FFB8B8"/>
<path d="M320.769 149.82L309.83 132.455C308.704 129.813 306.387 127.639 303.369 126.391C300.351 125.143 296.867 124.918 293.653 125.764C293.531 125.792 293.415 125.824 293.293 125.861C290.036 126.807 287.364 128.789 285.863 131.371C284.362 133.953 284.155 136.924 285.288 139.633L289.678 158.825C289.804 159.374 290.071 159.895 290.46 160.351C290.85 160.806 291.354 161.187 291.937 161.466C292.574 161.776 293.292 161.953 294.029 161.981C294.636 162.013 295.244 161.943 295.817 161.774L298.165 161.093L313.234 156.731L318.162 155.305C318.797 155.12 319.377 154.824 319.863 154.436C320.348 154.049 320.727 153.579 320.975 153.058C321.222 152.538 321.332 151.979 321.296 151.42C321.261 150.862 321.081 150.316 320.769 149.82Z" fill="#07730A"/>
<path d="M362.066 216.802H0.553613C0.406785 216.802 0.26597 216.754 0.162146 216.667C0.0583231 216.581 -3.8147e-06 216.464 -3.8147e-06 216.342C-3.8147e-06 216.22 0.0583231 216.103 0.162146 216.016C0.26597 215.93 0.406785 215.882 0.553613 215.882H362.066C362.212 215.882 362.353 215.93 362.457 216.016C362.561 216.103 362.619 216.22 362.619 216.342C362.619 216.464 362.561 216.581 362.457 216.667C362.353 216.754 362.212 216.802 362.066 216.802Z" fill="#3F3D56"/>
<path d="M62.8332 208.289V208.52C62.8351 210.08 63.3817 211.606 64.4067 212.912C65.4317 214.219 66.891 215.251 68.6075 215.882C69.8388 216.339 71.1728 216.574 72.5215 216.572H161.931V208.289H62.8332Z" fill="#3F3D56"/>
<path d="M224.357 153.704C222.938 151.269 220.753 149.199 218.034 147.713C216.802 147.035 215.472 146.487 214.076 146.084C212.174 145.532 210.173 145.25 208.158 145.251H122.347C117.577 145.256 113.004 146.833 109.631 149.636C106.258 152.44 104.36 156.241 104.355 160.205V201.618C104.353 202.199 104.394 202.78 104.477 203.357C104.598 204.22 104.809 205.073 105.107 205.906C105.403 206.727 105.785 207.524 106.248 208.29C107.738 210.779 110.035 212.872 112.879 214.336C115.723 215.799 119.002 216.573 122.347 216.572H208.158C210.521 216.573 212.861 216.186 215.044 215.435C217.228 214.684 219.212 213.582 220.883 212.194C222.554 210.805 223.879 209.156 224.783 207.341C225.687 205.527 226.151 203.582 226.15 201.618V160.205C226.154 157.953 225.541 155.73 224.357 153.704Z" fill="#ACABBA"/>
<path d="M169.958 184.593C172.404 184.593 174.387 182.944 174.387 180.911C174.387 178.878 172.404 177.23 169.958 177.23C167.512 177.23 165.529 178.878 165.529 180.911C165.529 182.944 167.512 184.593 169.958 184.593Z" fill="white"/>
</g>
<defs>
<clipPath id="clip0">
<rect width="396" height="278" fill="white"/>
</clipPath>
</defs>
</svg>
