<svg width="80" height="80" viewBox="0 0 80 80" fill="none" xmlns="http://www.w3.org/2000/svg">
<path d="M54.5828 10.8328C58.4473 10.8444 62.1502 12.3846 64.8828 15.1172C67.6154 17.8498 69.1556 21.5527 69.1672 25.4172V54.5828C69.1556 58.4473 67.6154 62.1502 64.8828 64.8828C62.1502 67.6154 58.4473 69.1556 54.5828 69.1672H25.4172C21.5527 69.1556 17.8498 67.6154 15.1172 64.8828C12.3846 62.1502 10.8444 58.4473 10.8328 54.5828V25.4172C10.8444 21.5527 12.3846 17.8498 15.1172 15.1172C17.8498 12.3846 21.5527 10.8444 25.4172 10.8328H54.5828ZM54.5828 5H25.4172C14.1875 5 5 14.1875 5 25.4172V54.5828C5 65.8125 14.1875 75 25.4172 75H54.5828C65.8125 75 75 65.8125 75 54.5828V25.4172C75 14.1875 65.8125 5 54.5828 5Z" fill="black"/>
<path d="M58.9578 25.4172C58.0925 25.4172 57.2466 25.1606 56.5271 24.6799C55.8077 24.1992 55.2469 23.5159 54.9158 22.7165C54.5847 21.9171 54.498 21.0374 54.6668 20.1887C54.8356 19.3401 55.2523 18.5605 55.8642 17.9486C56.476 17.3368 57.2556 16.9201 58.1042 16.7513C58.9529 16.5825 59.8326 16.6691 60.632 17.0003C61.4314 17.3314 62.1147 17.8922 62.5954 18.6116C63.0762 19.3311 63.3328 20.1769 63.3328 21.0422C63.334 21.6171 63.2217 22.1866 63.0022 22.7179C62.7828 23.2493 62.4606 23.7321 62.0541 24.1386C61.6476 24.5451 61.1648 24.8673 60.6335 25.0867C60.1021 25.3062 59.5326 25.4185 58.9578 25.4172ZM39.9999 28.3329C42.3075 28.3329 44.5632 29.0171 46.4819 30.2991C48.4005 31.5811 49.896 33.4033 50.779 35.5352C51.6621 37.6671 51.8931 40.013 51.443 42.2762C50.9928 44.5394 49.8816 46.6183 48.2499 48.25C46.6182 49.8817 44.5393 50.9929 42.2761 51.4431C40.0129 51.8932 37.667 51.6622 35.5351 50.7791C33.4032 49.8961 31.581 48.4007 30.299 46.482C29.017 44.5633 28.3328 42.3076 28.3328 40C28.3361 36.9067 29.5663 33.9411 31.7537 31.7538C33.941 29.5665 36.9066 28.3362 39.9999 28.3329ZM39.9999 22.5001C36.5388 22.5001 33.1553 23.5264 30.2775 25.4493C27.3996 27.3723 25.1566 30.1054 23.8321 33.3031C22.5075 36.5008 22.161 40.0195 22.8362 43.4141C23.5114 46.8088 25.1782 49.927 27.6256 52.3744C30.073 54.8218 33.1912 56.4886 36.5859 57.1638C39.9805 57.839 43.4992 57.4925 46.6969 56.1679C49.8946 54.8434 52.6277 52.6004 54.5507 49.7225C56.4736 46.8447 57.4999 43.4612 57.4999 40C57.4999 35.3588 55.6562 30.9076 52.3743 27.6257C49.0924 24.3438 44.6412 22.5001 39.9999 22.5001Z" fill="black"/>
</svg>
