<svg width="427" height="401" viewBox="0 0 427 401" fill="none" xmlns="http://www.w3.org/2000/svg">
<g clip-path="url(#clip0)">
<path d="M426.792 401H286.127V399.669H427L426.792 401Z" fill="#3F3D56"/>
<path d="M3.71774 8.6178C5.7714 8.6178 7.43621 6.6888 7.43621 4.30925C7.43621 1.92971 5.7714 0.000701904 3.71774 0.000701904C1.66408 0.000701904 -0.000732422 1.92971 -0.000732422 4.30925C-0.000732422 6.6888 1.66408 8.6178 3.71774 8.6178Z" fill="#E6E6E6"/>
<path d="M22.541 8.61755C24.5946 8.61755 26.2594 6.68855 26.2594 4.309C26.2594 1.92945 24.5946 0.000450134 22.541 0.000450134C20.4873 0.000450134 18.8225 1.92945 18.8225 4.309C18.8225 6.68855 20.4873 8.61755 22.541 8.61755Z" fill="#E6E6E6"/>
<path d="M41.3639 8.61755C43.4175 8.61755 45.0823 6.68855 45.0823 4.309C45.0823 1.92945 43.4175 0.000450134 41.3639 0.000450134C39.3102 0.000450134 37.6454 1.92945 37.6454 4.309C37.6454 6.68855 39.3102 8.61755 41.3639 8.61755Z" fill="#E6E6E6"/>
<path d="M60.1867 8.61755C62.2404 8.61755 63.9052 6.68855 63.9052 4.309C63.9052 1.92945 62.2404 0.000450134 60.1867 0.000450134C58.1331 0.000450134 56.4683 1.92945 56.4683 4.309C56.4683 6.68855 58.1331 8.61755 60.1867 8.61755Z" fill="#E6E6E6"/>
<path d="M79.0095 8.61755C81.0631 8.61755 82.728 6.68855 82.728 4.309C82.728 1.92945 81.0631 0.000450134 79.0095 0.000450134C76.9558 0.000450134 75.291 1.92945 75.291 4.309C75.291 6.68855 76.9558 8.61755 79.0095 8.61755Z" fill="#E6E6E6"/>
<path d="M97.8324 8.61755C99.886 8.61755 101.551 6.68855 101.551 4.309C101.551 1.92945 99.886 0.000450134 97.8324 0.000450134C95.7787 0.000450134 94.1139 1.92945 94.1139 4.309C94.1139 6.68855 95.7787 8.61755 97.8324 8.61755Z" fill="#E6E6E6"/>
<path d="M116.655 8.61755C118.709 8.61755 120.374 6.68855 120.374 4.309C120.374 1.92945 118.709 0.000450134 116.655 0.000450134C114.602 0.000450134 112.937 1.92945 112.937 4.309C112.937 6.68855 114.602 8.61755 116.655 8.61755Z" fill="#E6E6E6"/>
<path d="M135.478 8.61755C137.532 8.61755 139.197 6.68855 139.197 4.309C139.197 1.92945 137.532 0.000450134 135.478 0.000450134C133.424 0.000450134 131.76 1.92945 131.76 4.309C131.76 6.68855 133.424 8.61755 135.478 8.61755Z" fill="#E6E6E6"/>
<path d="M154.301 8.61755C156.355 8.61755 158.019 6.68855 158.019 4.309C158.019 1.92945 156.355 0.000450134 154.301 0.000450134C152.247 0.000450134 150.583 1.92945 150.583 4.309C150.583 6.68855 152.247 8.61755 154.301 8.61755Z" fill="#E6E6E6"/>
<path d="M173.124 8.61755C175.178 8.61755 176.842 6.68855 176.842 4.309C176.842 1.92945 175.178 0.000450134 173.124 0.000450134C171.07 0.000450134 169.405 1.92945 169.405 4.309C169.405 6.68855 171.07 8.61755 173.124 8.61755Z" fill="#E6E6E6"/>
<path d="M3.71811 30.7011C5.77176 30.7011 7.43658 28.7721 7.43658 26.3926C7.43658 24.013 5.77176 22.084 3.71811 22.084C1.66445 22.084 -0.000366211 24.013 -0.000366211 26.3926C-0.000366211 28.7721 1.66445 30.7011 3.71811 30.7011Z" fill="#E6E6E6"/>
<path d="M22.541 30.7011C24.5946 30.7011 26.2594 28.7721 26.2594 26.3926C26.2594 24.013 24.5946 22.084 22.541 22.084C20.4873 22.084 18.8225 24.013 18.8225 26.3926C18.8225 28.7721 20.4873 30.7011 22.541 30.7011Z" fill="#E6E6E6"/>
<path d="M41.3639 30.7011C43.4175 30.7011 45.0823 28.7721 45.0823 26.3926C45.0823 24.013 43.4175 22.084 41.3639 22.084C39.3102 22.084 37.6454 24.013 37.6454 26.3926C37.6454 28.7721 39.3102 30.7011 41.3639 30.7011Z" fill="#E6E6E6"/>
<path d="M60.1867 30.7011C62.2404 30.7011 63.9052 28.7721 63.9052 26.3926C63.9052 24.013 62.2404 22.084 60.1867 22.084C58.1331 22.084 56.4683 24.013 56.4683 26.3926C56.4683 28.7721 58.1331 30.7011 60.1867 30.7011Z" fill="#07730A"/>
<path d="M79.0095 30.7011C81.0631 30.7011 82.728 28.7721 82.728 26.3926C82.728 24.013 81.0631 22.084 79.0095 22.084C76.9558 22.084 75.291 24.013 75.291 26.3926C75.291 28.7721 76.9558 30.7011 79.0095 30.7011Z" fill="#E6E6E6"/>
<path d="M97.8324 30.7011C99.886 30.7011 101.551 28.7721 101.551 26.3926C101.551 24.013 99.886 22.084 97.8324 22.084C95.7787 22.084 94.1139 24.013 94.1139 26.3926C94.1139 28.7721 95.7787 30.7011 97.8324 30.7011Z" fill="#E6E6E6"/>
<path d="M116.655 30.7011C118.709 30.7011 120.374 28.7721 120.374 26.3926C120.374 24.013 118.709 22.084 116.655 22.084C114.602 22.084 112.937 24.013 112.937 26.3926C112.937 28.7721 114.602 30.7011 116.655 30.7011Z" fill="#E6E6E6"/>
<path d="M135.478 30.7011C137.532 30.7011 139.197 28.7721 139.197 26.3926C139.197 24.013 137.532 22.084 135.478 22.084C133.424 22.084 131.76 24.013 131.76 26.3926C131.76 28.7721 133.424 30.7011 135.478 30.7011Z" fill="#E6E6E6"/>
<path d="M154.301 30.7011C156.355 30.7011 158.019 28.7721 158.019 26.3926C158.019 24.013 156.355 22.084 154.301 22.084C152.247 22.084 150.583 24.013 150.583 26.3926C150.583 28.7721 152.247 30.7011 154.301 30.7011Z" fill="#E6E6E6"/>
<path d="M173.124 30.7011C175.178 30.7011 176.842 28.7721 176.842 26.3926C176.842 24.013 175.178 22.084 173.124 22.084C171.07 22.084 169.405 24.013 169.405 26.3926C169.405 28.7721 171.07 30.7011 173.124 30.7011Z" fill="#E6E6E6"/>
<path d="M3.71811 52.7847C5.77176 52.7847 7.43658 50.8557 7.43658 48.4762C7.43658 46.0966 5.77176 44.1676 3.71811 44.1676C1.66445 44.1676 -0.000366211 46.0966 -0.000366211 48.4762C-0.000366211 50.8557 1.66445 52.7847 3.71811 52.7847Z" fill="#E6E6E6"/>
<path d="M22.541 52.7847C24.5946 52.7847 26.2594 50.8557 26.2594 48.4762C26.2594 46.0966 24.5946 44.1676 22.541 44.1676C20.4873 44.1676 18.8225 46.0966 18.8225 48.4762C18.8225 50.8557 20.4873 52.7847 22.541 52.7847Z" fill="#E6E6E6"/>
<path d="M41.3639 52.7847C43.4175 52.7847 45.0823 50.8557 45.0823 48.4762C45.0823 46.0966 43.4175 44.1676 41.3639 44.1676C39.3102 44.1676 37.6454 46.0966 37.6454 48.4762C37.6454 50.8557 39.3102 52.7847 41.3639 52.7847Z" fill="#E6E6E6"/>
<path d="M60.1867 52.7847C62.2404 52.7847 63.9052 50.8557 63.9052 48.4762C63.9052 46.0966 62.2404 44.1676 60.1867 44.1676C58.1331 44.1676 56.4683 46.0966 56.4683 48.4762C56.4683 50.8557 58.1331 52.7847 60.1867 52.7847Z" fill="#E6E6E6"/>
<path d="M79.0095 52.7847C81.0631 52.7847 82.728 50.8557 82.728 48.4762C82.728 46.0966 81.0631 44.1676 79.0095 44.1676C76.9558 44.1676 75.291 46.0966 75.291 48.4762C75.291 50.8557 76.9558 52.7847 79.0095 52.7847Z" fill="#E6E6E6"/>
<path d="M97.8324 52.7847C99.886 52.7847 101.551 50.8557 101.551 48.4762C101.551 46.0966 99.886 44.1676 97.8324 44.1676C95.7787 44.1676 94.1139 46.0966 94.1139 48.4762C94.1139 50.8557 95.7787 52.7847 97.8324 52.7847Z" fill="#E6E6E6"/>
<path d="M116.655 52.7847C118.709 52.7847 120.374 50.8557 120.374 48.4762C120.374 46.0966 118.709 44.1676 116.655 44.1676C114.602 44.1676 112.937 46.0966 112.937 48.4762C112.937 50.8557 114.602 52.7847 116.655 52.7847Z" fill="#E6E6E6"/>
<path d="M135.478 52.7847C137.532 52.7847 139.197 50.8557 139.197 48.4762C139.197 46.0966 137.532 44.1676 135.478 44.1676C133.424 44.1676 131.76 46.0966 131.76 48.4762C131.76 50.8557 133.424 52.7847 135.478 52.7847Z" fill="#E6E6E6"/>
<path d="M154.301 52.7847C156.355 52.7847 158.019 50.8557 158.019 48.4762C158.019 46.0966 156.355 44.1676 154.301 44.1676C152.247 44.1676 150.583 46.0966 150.583 48.4762C150.583 50.8557 152.247 52.7847 154.301 52.7847Z" fill="#E6E6E6"/>
<path d="M173.124 52.7847C175.178 52.7847 176.842 50.8557 176.842 48.4762C176.842 46.0966 175.178 44.1676 173.124 44.1676C171.07 44.1676 169.405 46.0966 169.405 48.4762C169.405 50.8557 171.07 52.7847 173.124 52.7847Z" fill="#E6E6E6"/>
<path d="M3.71811 74.8683C5.77176 74.8683 7.43658 72.9393 7.43658 70.5598C7.43658 68.1802 5.77176 66.2512 3.71811 66.2512C1.66445 66.2512 -0.000366211 68.1802 -0.000366211 70.5598C-0.000366211 72.9393 1.66445 74.8683 3.71811 74.8683Z" fill="#E6E6E6"/>
<path d="M22.541 74.8683C24.5946 74.8683 26.2594 72.9393 26.2594 70.5598C26.2594 68.1802 24.5946 66.2512 22.541 66.2512C20.4873 66.2512 18.8225 68.1802 18.8225 70.5598C18.8225 72.9393 20.4873 74.8683 22.541 74.8683Z" fill="#E6E6E6"/>
<path d="M41.3639 74.8683C43.4175 74.8683 45.0823 72.9393 45.0823 70.5598C45.0823 68.1802 43.4175 66.2512 41.3639 66.2512C39.3102 66.2512 37.6454 68.1802 37.6454 70.5598C37.6454 72.9393 39.3102 74.8683 41.3639 74.8683Z" fill="#E6E6E6"/>
<path d="M60.1867 74.8683C62.2404 74.8683 63.9052 72.9393 63.9052 70.5598C63.9052 68.1802 62.2404 66.2512 60.1867 66.2512C58.1331 66.2512 56.4683 68.1802 56.4683 70.5598C56.4683 72.9393 58.1331 74.8683 60.1867 74.8683Z" fill="#E6E6E6"/>
<path d="M79.0095 74.8683C81.0631 74.8683 82.728 72.9393 82.728 70.5598C82.728 68.1802 81.0631 66.2512 79.0095 66.2512C76.9558 66.2512 75.291 68.1802 75.291 70.5598C75.291 72.9393 76.9558 74.8683 79.0095 74.8683Z" fill="#E6E6E6"/>
<path d="M97.8324 74.8683C99.886 74.8683 101.551 72.9393 101.551 70.5598C101.551 68.1802 99.886 66.2512 97.8324 66.2512C95.7787 66.2512 94.1139 68.1802 94.1139 70.5598C94.1139 72.9393 95.7787 74.8683 97.8324 74.8683Z" fill="#E6E6E6"/>
<path d="M116.655 74.8683C118.709 74.8683 120.374 72.9393 120.374 70.5598C120.374 68.1802 118.709 66.2512 116.655 66.2512C114.602 66.2512 112.937 68.1802 112.937 70.5598C112.937 72.9393 114.602 74.8683 116.655 74.8683Z" fill="#E6E6E6"/>
<path d="M135.478 74.8683C137.532 74.8683 139.197 72.9393 139.197 70.5598C139.197 68.1802 137.532 66.2512 135.478 66.2512C133.424 66.2512 131.76 68.1802 131.76 70.5598C131.76 72.9393 133.424 74.8683 135.478 74.8683Z" fill="#E6E6E6"/>
<path d="M154.301 74.8683C156.355 74.8683 158.019 72.9393 158.019 70.5598C158.019 68.1802 156.355 66.2512 154.301 66.2512C152.247 66.2512 150.583 68.1802 150.583 70.5598C150.583 72.9393 152.247 74.8683 154.301 74.8683Z" fill="#E6E6E6"/>
<path d="M173.124 74.8683C175.178 74.8683 176.842 72.9393 176.842 70.5598C176.842 68.1802 175.178 66.2512 173.124 66.2512C171.07 66.2512 169.405 68.1802 169.405 70.5598C169.405 72.9393 171.07 74.8683 173.124 74.8683Z" fill="#E6E6E6"/>
<path d="M3.71811 96.9519C5.77176 96.9519 7.43658 95.0229 7.43658 92.6434C7.43658 90.2638 5.77176 88.3348 3.71811 88.3348C1.66445 88.3348 -0.000366211 90.2638 -0.000366211 92.6434C-0.000366211 95.0229 1.66445 96.9519 3.71811 96.9519Z" fill="#E6E6E6"/>
<path d="M22.541 96.9519C24.5946 96.9519 26.2594 95.0229 26.2594 92.6434C26.2594 90.2638 24.5946 88.3348 22.541 88.3348C20.4873 88.3348 18.8225 90.2638 18.8225 92.6434C18.8225 95.0229 20.4873 96.9519 22.541 96.9519Z" fill="#07730A"/>
<path d="M41.3639 96.9519C43.4175 96.9519 45.0823 95.0229 45.0823 92.6434C45.0823 90.2638 43.4175 88.3348 41.3639 88.3348C39.3102 88.3348 37.6454 90.2638 37.6454 92.6434C37.6454 95.0229 39.3102 96.9519 41.3639 96.9519Z" fill="#E6E6E6"/>
<path d="M60.1867 96.9519C62.2404 96.9519 63.9052 95.0229 63.9052 92.6434C63.9052 90.2638 62.2404 88.3348 60.1867 88.3348C58.1331 88.3348 56.4683 90.2638 56.4683 92.6434C56.4683 95.0229 58.1331 96.9519 60.1867 96.9519Z" fill="#E6E6E6"/>
<path d="M79.0095 96.9519C81.0631 96.9519 82.728 95.0229 82.728 92.6434C82.728 90.2638 81.0631 88.3348 79.0095 88.3348C76.9558 88.3348 75.291 90.2638 75.291 92.6434C75.291 95.0229 76.9558 96.9519 79.0095 96.9519Z" fill="#E6E6E6"/>
<path d="M97.8324 96.9519C99.886 96.9519 101.551 95.0229 101.551 92.6434C101.551 90.2638 99.886 88.3348 97.8324 88.3348C95.7787 88.3348 94.1139 90.2638 94.1139 92.6434C94.1139 95.0229 95.7787 96.9519 97.8324 96.9519Z" fill="#E6E6E6"/>
<path d="M116.655 96.9519C118.709 96.9519 120.374 95.0229 120.374 92.6434C120.374 90.2638 118.709 88.3348 116.655 88.3348C114.602 88.3348 112.937 90.2638 112.937 92.6434C112.937 95.0229 114.602 96.9519 116.655 96.9519Z" fill="#E6E6E6"/>
<path d="M135.478 96.9519C137.532 96.9519 139.197 95.0229 139.197 92.6434C139.197 90.2638 137.532 88.3348 135.478 88.3348C133.424 88.3348 131.76 90.2638 131.76 92.6434C131.76 95.0229 133.424 96.9519 135.478 96.9519Z" fill="#E6E6E6"/>
<path d="M154.301 96.9519C156.355 96.9519 158.019 95.0229 158.019 92.6434C158.019 90.2638 156.355 88.3348 154.301 88.3348C152.247 88.3348 150.583 90.2638 150.583 92.6434C150.583 95.0229 152.247 96.9519 154.301 96.9519Z" fill="#E6E6E6"/>
<path d="M173.124 96.9519C175.178 96.9519 176.842 95.0229 176.842 92.6434C176.842 90.2638 175.178 88.3348 173.124 88.3348C171.07 88.3348 169.405 90.2638 169.405 92.6434C169.405 95.0229 171.07 96.9519 173.124 96.9519Z" fill="#E6E6E6"/>
<path d="M3.71811 119.035C5.77176 119.035 7.43658 117.106 7.43658 114.727C7.43658 112.347 5.77176 110.418 3.71811 110.418C1.66445 110.418 -0.000366211 112.347 -0.000366211 114.727C-0.000366211 117.106 1.66445 119.035 3.71811 119.035Z" fill="#E6E6E6"/>
<path d="M22.541 119.035C24.5946 119.035 26.2594 117.106 26.2594 114.727C26.2594 112.347 24.5946 110.418 22.541 110.418C20.4873 110.418 18.8225 112.347 18.8225 114.727C18.8225 117.106 20.4873 119.035 22.541 119.035Z" fill="#E6E6E6"/>
<path d="M41.3639 119.035C43.4175 119.035 45.0823 117.106 45.0823 114.727C45.0823 112.347 43.4175 110.418 41.3639 110.418C39.3102 110.418 37.6454 112.347 37.6454 114.727C37.6454 117.106 39.3102 119.035 41.3639 119.035Z" fill="#E6E6E6"/>
<path d="M60.1867 119.035C62.2404 119.035 63.9052 117.106 63.9052 114.727C63.9052 112.347 62.2404 110.418 60.1867 110.418C58.1331 110.418 56.4683 112.347 56.4683 114.727C56.4683 117.106 58.1331 119.035 60.1867 119.035Z" fill="#E6E6E6"/>
<path d="M79.0095 119.035C81.0631 119.035 82.728 117.106 82.728 114.727C82.728 112.347 81.0631 110.418 79.0095 110.418C76.9558 110.418 75.291 112.347 75.291 114.727C75.291 117.106 76.9558 119.035 79.0095 119.035Z" fill="#E6E6E6"/>
<path d="M97.8324 119.035C99.886 119.035 101.551 117.106 101.551 114.727C101.551 112.347 99.886 110.418 97.8324 110.418C95.7787 110.418 94.1139 112.347 94.1139 114.727C94.1139 117.106 95.7787 119.035 97.8324 119.035Z" fill="#E6E6E6"/>
<path d="M116.655 119.035C118.709 119.035 120.374 117.106 120.374 114.727C120.374 112.347 118.709 110.418 116.655 110.418C114.602 110.418 112.937 112.347 112.937 114.727C112.937 117.106 114.602 119.035 116.655 119.035Z" fill="#E6E6E6"/>
<path d="M135.478 119.035C137.532 119.035 139.197 117.106 139.197 114.727C139.197 112.347 137.532 110.418 135.478 110.418C133.424 110.418 131.76 112.347 131.76 114.727C131.76 117.106 133.424 119.035 135.478 119.035Z" fill="#E6E6E6"/>
<path d="M154.301 119.035C156.355 119.035 158.019 117.106 158.019 114.727C158.019 112.347 156.355 110.418 154.301 110.418C152.247 110.418 150.583 112.347 150.583 114.727C150.583 117.106 152.247 119.035 154.301 119.035Z" fill="#E6E6E6"/>
<path d="M173.124 119.035C175.178 119.035 176.842 117.106 176.842 114.727C176.842 112.347 175.178 110.418 173.124 110.418C171.07 110.418 169.405 112.347 169.405 114.727C169.405 117.106 171.07 119.035 173.124 119.035Z" fill="#E6E6E6"/>
<path d="M3.71811 141.119C5.77176 141.119 7.43658 139.19 7.43658 136.811C7.43658 134.431 5.77176 132.502 3.71811 132.502C1.66445 132.502 -0.000366211 134.431 -0.000366211 136.811C-0.000366211 139.19 1.66445 141.119 3.71811 141.119Z" fill="#E6E6E6"/>
<path d="M22.541 141.119C24.5946 141.119 26.2594 139.19 26.2594 136.811C26.2594 134.431 24.5946 132.502 22.541 132.502C20.4873 132.502 18.8225 134.431 18.8225 136.811C18.8225 139.19 20.4873 141.119 22.541 141.119Z" fill="#E6E6E6"/>
<path d="M41.3639 141.119C43.4175 141.119 45.0823 139.19 45.0823 136.811C45.0823 134.431 43.4175 132.502 41.3639 132.502C39.3102 132.502 37.6454 134.431 37.6454 136.811C37.6454 139.19 39.3102 141.119 41.3639 141.119Z" fill="#07730A"/>
<path d="M60.1867 141.119C62.2404 141.119 63.9052 139.19 63.9052 136.811C63.9052 134.431 62.2404 132.502 60.1867 132.502C58.1331 132.502 56.4683 134.431 56.4683 136.811C56.4683 139.19 58.1331 141.119 60.1867 141.119Z" fill="#E6E6E6"/>
<path d="M79.0095 141.119C81.0631 141.119 82.728 139.19 82.728 136.811C82.728 134.431 81.0631 132.502 79.0095 132.502C76.9558 132.502 75.291 134.431 75.291 136.811C75.291 139.19 76.9558 141.119 79.0095 141.119Z" fill="#E6E6E6"/>
<path d="M97.8324 141.119C99.886 141.119 101.551 139.19 101.551 136.811C101.551 134.431 99.886 132.502 97.8324 132.502C95.7787 132.502 94.1139 134.431 94.1139 136.811C94.1139 139.19 95.7787 141.119 97.8324 141.119Z" fill="#E6E6E6"/>
<path d="M116.655 141.119C118.709 141.119 120.374 139.19 120.374 136.811C120.374 134.431 118.709 132.502 116.655 132.502C114.602 132.502 112.937 134.431 112.937 136.811C112.937 139.19 114.602 141.119 116.655 141.119Z" fill="#E6E6E6"/>
<path d="M135.478 141.119C137.532 141.119 139.197 139.19 139.197 136.811C139.197 134.431 137.532 132.502 135.478 132.502C133.424 132.502 131.76 134.431 131.76 136.811C131.76 139.19 133.424 141.119 135.478 141.119Z" fill="#E6E6E6"/>
<path d="M154.301 141.119C156.355 141.119 158.019 139.19 158.019 136.811C158.019 134.431 156.355 132.502 154.301 132.502C152.247 132.502 150.583 134.431 150.583 136.811C150.583 139.19 152.247 141.119 154.301 141.119Z" fill="#E6E6E6"/>
<path d="M173.124 141.119C175.178 141.119 176.842 139.19 176.842 136.811C176.842 134.431 175.178 132.502 173.124 132.502C171.07 132.502 169.405 134.431 169.405 136.811C169.405 139.19 171.07 141.119 173.124 141.119Z" fill="#E6E6E6"/>
<path d="M3.71811 163.203C5.77176 163.203 7.43658 161.274 7.43658 158.894C7.43658 156.515 5.77176 154.586 3.71811 154.586C1.66445 154.586 -0.000366211 156.515 -0.000366211 158.894C-0.000366211 161.274 1.66445 163.203 3.71811 163.203Z" fill="#E6E6E6"/>
<path d="M22.541 163.203C24.5946 163.203 26.2594 161.274 26.2594 158.894C26.2594 156.515 24.5946 154.586 22.541 154.586C20.4873 154.586 18.8225 156.515 18.8225 158.894C18.8225 161.274 20.4873 163.203 22.541 163.203Z" fill="#E6E6E6"/>
<path d="M41.3639 163.203C43.4175 163.203 45.0823 161.274 45.0823 158.894C45.0823 156.515 43.4175 154.586 41.3639 154.586C39.3102 154.586 37.6454 156.515 37.6454 158.894C37.6454 161.274 39.3102 163.203 41.3639 163.203Z" fill="#E6E6E6"/>
<path d="M60.1867 163.203C62.2404 163.203 63.9052 161.274 63.9052 158.894C63.9052 156.515 62.2404 154.586 60.1867 154.586C58.1331 154.586 56.4683 156.515 56.4683 158.894C56.4683 161.274 58.1331 163.203 60.1867 163.203Z" fill="#E6E6E6"/>
<path d="M79.0095 163.203C81.0631 163.203 82.728 161.274 82.728 158.894C82.728 156.515 81.0631 154.586 79.0095 154.586C76.9558 154.586 75.291 156.515 75.291 158.894C75.291 161.274 76.9558 163.203 79.0095 163.203Z" fill="#E6E6E6"/>
<path d="M97.8324 163.203C99.886 163.203 101.551 161.274 101.551 158.894C101.551 156.515 99.886 154.586 97.8324 154.586C95.7787 154.586 94.1139 156.515 94.1139 158.894C94.1139 161.274 95.7787 163.203 97.8324 163.203Z" fill="#E6E6E6"/>
<path d="M116.655 163.203C118.709 163.203 120.374 161.274 120.374 158.894C120.374 156.515 118.709 154.586 116.655 154.586C114.602 154.586 112.937 156.515 112.937 158.894C112.937 161.274 114.602 163.203 116.655 163.203Z" fill="#E6E6E6"/>
<path d="M135.478 163.203C137.532 163.203 139.197 161.274 139.197 158.894C139.197 156.515 137.532 154.586 135.478 154.586C133.424 154.586 131.76 156.515 131.76 158.894C131.76 161.274 133.424 163.203 135.478 163.203Z" fill="#E6E6E6"/>
<path d="M154.301 163.203C156.355 163.203 158.019 161.274 158.019 158.894C158.019 156.515 156.355 154.586 154.301 154.586C152.247 154.586 150.583 156.515 150.583 158.894C150.583 161.274 152.247 163.203 154.301 163.203Z" fill="#E6E6E6"/>
<path d="M173.124 163.203C175.178 163.203 176.842 161.274 176.842 158.894C176.842 156.515 175.178 154.586 173.124 154.586C171.07 154.586 169.405 156.515 169.405 158.894C169.405 161.274 171.07 163.203 173.124 163.203Z" fill="#E6E6E6"/>
<path d="M3.71811 185.286C5.77176 185.286 7.43658 183.357 7.43658 180.978C7.43658 178.598 5.77176 176.669 3.71811 176.669C1.66445 176.669 -0.000366211 178.598 -0.000366211 180.978C-0.000366211 183.357 1.66445 185.286 3.71811 185.286Z" fill="#E6E6E6"/>
<path d="M22.541 185.286C24.5946 185.286 26.2594 183.357 26.2594 180.978C26.2594 178.598 24.5946 176.669 22.541 176.669C20.4873 176.669 18.8225 178.598 18.8225 180.978C18.8225 183.357 20.4873 185.286 22.541 185.286Z" fill="#E6E6E6"/>
<path d="M41.3639 185.286C43.4175 185.286 45.0823 183.357 45.0823 180.978C45.0823 178.598 43.4175 176.669 41.3639 176.669C39.3102 176.669 37.6454 178.598 37.6454 180.978C37.6454 183.357 39.3102 185.286 41.3639 185.286Z" fill="#E6E6E6"/>
<path d="M60.1867 185.286C62.2404 185.286 63.9052 183.357 63.9052 180.978C63.9052 178.598 62.2404 176.669 60.1867 176.669C58.1331 176.669 56.4683 178.598 56.4683 180.978C56.4683 183.357 58.1331 185.286 60.1867 185.286Z" fill="#E6E6E6"/>
<path d="M79.0095 185.286C81.0631 185.286 82.728 183.357 82.728 180.978C82.728 178.598 81.0631 176.669 79.0095 176.669C76.9558 176.669 75.291 178.598 75.291 180.978C75.291 183.357 76.9558 185.286 79.0095 185.286Z" fill="#E6E6E6"/>
<path d="M97.8324 185.286C99.886 185.286 101.551 183.357 101.551 180.978C101.551 178.598 99.886 176.669 97.8324 176.669C95.7787 176.669 94.1139 178.598 94.1139 180.978C94.1139 183.357 95.7787 185.286 97.8324 185.286Z" fill="#E6E6E6"/>
<path d="M116.655 185.286C118.709 185.286 120.374 183.357 120.374 180.978C120.374 178.598 118.709 176.669 116.655 176.669C114.602 176.669 112.937 178.598 112.937 180.978C112.937 183.357 114.602 185.286 116.655 185.286Z" fill="#E6E6E6"/>
<path d="M135.478 185.286C137.532 185.286 139.197 183.357 139.197 180.978C139.197 178.598 137.532 176.669 135.478 176.669C133.424 176.669 131.76 178.598 131.76 180.978C131.76 183.357 133.424 185.286 135.478 185.286Z" fill="#E6E6E6"/>
<path d="M154.301 185.286C156.355 185.286 158.019 183.357 158.019 180.978C158.019 178.598 156.355 176.669 154.301 176.669C152.247 176.669 150.583 178.598 150.583 180.978C150.583 183.357 152.247 185.286 154.301 185.286Z" fill="#E6E6E6"/>
<path d="M173.124 185.286C175.178 185.286 176.842 183.357 176.842 180.978C176.842 178.598 175.178 176.669 173.124 176.669C171.07 176.669 169.405 178.598 169.405 180.978C169.405 183.357 171.07 185.286 173.124 185.286Z" fill="#E6E6E6"/>
<path d="M3.71811 207.37C5.77176 207.37 7.43658 205.441 7.43658 203.061C7.43658 200.682 5.77176 198.753 3.71811 198.753C1.66445 198.753 -0.000366211 200.682 -0.000366211 203.061C-0.000366211 205.441 1.66445 207.37 3.71811 207.37Z" fill="#E6E6E6"/>
<path d="M22.541 207.37C24.5946 207.37 26.2594 205.441 26.2594 203.061C26.2594 200.682 24.5946 198.753 22.541 198.753C20.4873 198.753 18.8225 200.682 18.8225 203.061C18.8225 205.441 20.4873 207.37 22.541 207.37Z" fill="#E6E6E6"/>
<path d="M41.3639 207.37C43.4175 207.37 45.0823 205.441 45.0823 203.061C45.0823 200.682 43.4175 198.753 41.3639 198.753C39.3102 198.753 37.6454 200.682 37.6454 203.061C37.6454 205.441 39.3102 207.37 41.3639 207.37Z" fill="#E6E6E6"/>
<path d="M60.1867 207.37C62.2404 207.37 63.9052 205.441 63.9052 203.061C63.9052 200.682 62.2404 198.753 60.1867 198.753C58.1331 198.753 56.4683 200.682 56.4683 203.061C56.4683 205.441 58.1331 207.37 60.1867 207.37Z" fill="#E6E6E6"/>
<path d="M79.0095 207.37C81.0631 207.37 82.728 205.441 82.728 203.061C82.728 200.682 81.0631 198.753 79.0095 198.753C76.9558 198.753 75.291 200.682 75.291 203.061C75.291 205.441 76.9558 207.37 79.0095 207.37Z" fill="#E6E6E6"/>
<path d="M97.8324 207.37C99.886 207.37 101.551 205.441 101.551 203.061C101.551 200.682 99.886 198.753 97.8324 198.753C95.7787 198.753 94.1139 200.682 94.1139 203.061C94.1139 205.441 95.7787 207.37 97.8324 207.37Z" fill="#E6E6E6"/>
<path d="M116.655 207.37C118.709 207.37 120.374 205.441 120.374 203.061C120.374 200.682 118.709 198.753 116.655 198.753C114.602 198.753 112.937 200.682 112.937 203.061C112.937 205.441 114.602 207.37 116.655 207.37Z" fill="#E6E6E6"/>
<path d="M135.478 207.37C137.532 207.37 139.197 205.441 139.197 203.061C139.197 200.682 137.532 198.753 135.478 198.753C133.424 198.753 131.76 200.682 131.76 203.061C131.76 205.441 133.424 207.37 135.478 207.37Z" fill="#E6E6E6"/>
<path d="M154.301 207.37C156.355 207.37 158.019 205.441 158.019 203.061C158.019 200.682 156.355 198.753 154.301 198.753C152.247 198.753 150.583 200.682 150.583 203.061C150.583 205.441 152.247 207.37 154.301 207.37Z" fill="#E6E6E6"/>
<path d="M173.124 207.37C175.178 207.37 176.842 205.441 176.842 203.061C176.842 200.682 175.178 198.753 173.124 198.753C171.07 198.753 169.405 200.682 169.405 203.061C169.405 205.441 171.07 207.37 173.124 207.37Z" fill="#E6E6E6"/>
<path d="M218.526 38.5061C219.773 38.5061 220.969 39.08 221.85 40.1016C222.732 41.1231 223.227 42.5086 223.227 43.9533V261.842C223.227 262.558 223.106 263.266 222.869 263.927C222.633 264.588 222.287 265.188 221.85 265.694C221.414 266.2 220.895 266.601 220.325 266.875C219.755 267.149 219.143 267.29 218.526 267.29H83.6016C82.9842 267.29 82.3729 267.149 81.8025 266.875C81.2321 266.601 80.7139 266.2 80.2773 265.694C79.8408 265.188 79.4945 264.588 79.2582 263.927C79.022 263.266 78.9004 262.558 78.9004 261.842V43.9533C78.9004 42.5086 79.3957 41.1231 80.2773 40.1016C81.159 39.08 82.3548 38.5061 83.6016 38.5061H218.526" fill="#E6E6E6"/>
<path d="M84.1489 261.208H217.979V44.5875H84.1489V261.208Z" fill="white"/>
<path d="M188.203 78.8591C188.327 78.8591 188.449 78.8873 188.563 78.942C188.677 78.9968 188.781 79.077 188.868 79.1782C188.955 79.2794 189.025 79.3995 189.072 79.5316C189.119 79.6638 189.144 79.8055 189.144 79.9486V82.1274C189.144 82.4164 189.044 82.6935 188.868 82.8978C188.692 83.1021 188.453 83.2169 188.203 83.2169H113.924C113.801 83.2169 113.679 83.1887 113.565 83.134C113.45 83.0792 113.347 82.999 113.26 82.8978C113.172 82.7966 113.103 82.6765 113.056 82.5444C113.008 82.4122 112.984 82.2705 112.984 82.1274V79.9486C112.984 79.8055 113.008 79.6638 113.056 79.5316C113.103 79.3995 113.172 79.2794 113.26 79.1782C113.347 79.077 113.45 78.9968 113.565 78.942C113.679 78.8873 113.801 78.8591 113.924 78.8591H188.203" fill="#E6E6E6"/>
<path d="M188.203 89.2088C188.453 89.2088 188.692 89.3236 188.868 89.5279C189.044 89.7322 189.144 90.0093 189.144 90.2983V92.4772C189.144 92.7661 189.044 93.0432 188.868 93.2475C188.692 93.4518 188.453 93.5666 188.203 93.5666H113.924C113.801 93.5666 113.679 93.5384 113.565 93.4837C113.45 93.4289 113.347 93.3487 113.26 93.2475C113.172 93.1464 113.103 93.0263 113.056 92.8941C113.008 92.7619 112.984 92.6202 112.984 92.4772V90.2983C112.984 90.1552 113.008 90.0135 113.056 89.8814C113.103 89.7492 113.172 89.6291 113.26 89.5279C113.347 89.4268 113.45 89.3465 113.565 89.2918C113.679 89.237 113.801 89.2088 113.924 89.2088H188.203" fill="#E6E6E6"/>
<path d="M188.203 99.5586C188.453 99.5586 188.692 99.6734 188.868 99.8777C189.044 100.082 189.144 100.359 189.144 100.648V102.827C189.144 103.116 189.044 103.393 188.868 103.597C188.692 103.802 188.453 103.916 188.203 103.916H113.924C113.675 103.916 113.436 103.802 113.26 103.597C113.083 103.393 112.984 103.116 112.984 102.827V100.648C112.984 100.359 113.083 100.082 113.26 99.8777C113.436 99.6734 113.675 99.5586 113.924 99.5586H188.203" fill="#07730A"/>
<path d="M188.203 110.135C188.453 110.135 188.692 110.25 188.868 110.454C189.044 110.658 189.144 110.935 189.144 111.224V113.403C189.144 113.692 189.044 113.969 188.868 114.173C188.692 114.378 188.453 114.493 188.203 114.493H113.924C113.801 114.493 113.679 114.464 113.565 114.41C113.45 114.355 113.347 114.275 113.26 114.173C113.172 114.072 113.103 113.952 113.056 113.82C113.008 113.688 112.984 113.546 112.984 113.403V111.224C112.984 111.081 113.008 110.94 113.056 110.807C113.103 110.675 113.172 110.555 113.26 110.454C113.347 110.353 113.45 110.273 113.565 110.218C113.679 110.163 113.801 110.135 113.924 110.135H188.203" fill="#E6E6E6"/>
<path d="M188.203 120.485C188.453 120.485 188.692 120.599 188.868 120.804C189.044 121.008 189.144 121.285 189.144 121.574V123.753C189.144 123.896 189.119 124.038 189.072 124.17C189.025 124.302 188.955 124.422 188.868 124.523C188.781 124.624 188.677 124.705 188.563 124.759C188.449 124.814 188.327 124.842 188.203 124.842H113.924C113.801 124.842 113.679 124.814 113.565 124.759C113.45 124.705 113.347 124.624 113.26 124.523C113.172 124.422 113.103 124.302 113.056 124.17C113.008 124.038 112.984 123.896 112.984 123.753V121.574C112.984 121.431 113.008 121.289 113.056 121.157C113.103 121.025 113.172 120.905 113.26 120.804C113.347 120.702 113.45 120.622 113.565 120.567C113.679 120.513 113.801 120.485 113.924 120.485H188.203" fill="#E6E6E6"/>
<path d="M188.203 130.834C188.453 130.834 188.692 130.949 188.868 131.153C189.044 131.358 189.144 131.635 189.144 131.924V134.103C189.144 134.392 189.044 134.669 188.868 134.873C188.692 135.077 188.453 135.192 188.203 135.192H113.924C113.675 135.192 113.436 135.077 113.26 134.873C113.083 134.669 112.984 134.392 112.984 134.103V131.924C112.984 131.635 113.083 131.358 113.26 131.153C113.436 130.949 113.675 130.834 113.924 130.834H188.203" fill="#E6E6E6"/>
<path d="M114.399 165.65C114.109 165.65 113.832 165.784 113.627 166.021C113.423 166.258 113.308 166.579 113.307 166.915V225.672C113.308 226.007 113.423 226.329 113.627 226.566C113.832 226.803 114.109 226.936 114.399 226.937H187.602C187.892 226.936 188.169 226.803 188.374 226.566C188.579 226.329 188.694 226.007 188.694 225.672V166.915C188.694 166.579 188.579 166.258 188.374 166.021C188.169 165.784 187.892 165.65 187.602 165.65H114.399Z" fill="#79A5D9"/>
<path d="M151.308 101.927L150.54 101.69L167.309 28.5964H264.578V29.5178H167.92L151.308 101.927Z" fill="#3F3D56"/>
<path d="M272.526 38.7266C270.875 38.7266 269.262 38.1595 267.889 37.097C266.517 36.0345 265.447 34.5243 264.816 32.7575C264.184 30.9906 264.019 29.0464 264.341 27.1707C264.663 25.295 265.458 23.572 266.625 22.2197C267.792 20.8674 269.279 19.9465 270.898 19.5734C272.517 19.2003 274.194 19.3918 275.719 20.1236C277.244 20.8555 278.548 22.0949 279.465 23.685C280.382 25.2751 280.871 27.1446 280.871 29.0571C280.868 31.6207 279.988 34.0785 278.424 35.8912C276.859 37.704 274.738 38.7237 272.526 38.7266ZM272.526 20.3085C271.032 20.3085 269.573 20.8216 268.331 21.7829C267.089 22.7442 266.122 24.1105 265.55 25.7091C264.979 27.3077 264.829 29.0668 265.12 30.7639C265.412 32.4609 266.131 34.0198 267.187 35.2433C268.243 36.4668 269.588 37.3 271.053 37.6376C272.517 37.9752 274.036 37.8019 275.415 37.1397C276.795 36.4776 277.974 35.3563 278.804 33.9176C279.633 32.4789 280.076 30.7874 280.076 29.0571C280.074 26.7376 279.278 24.5139 277.862 22.8738C276.447 21.2337 274.528 20.3111 272.526 20.3085Z" fill="#3F3D56"/>
<path d="M272.526 32.7407C274.282 32.7407 275.705 31.0915 275.705 29.0571C275.705 27.0227 274.282 25.3735 272.526 25.3735C270.77 25.3735 269.347 27.0227 269.347 29.0571C269.347 31.0915 270.77 32.7407 272.526 32.7407Z" fill="#07730A"/>
<path d="M148.708 225.719L149.476 225.957L132.586 299.013L35.3175 298.797L35.3191 297.876L131.977 298.091L148.708 225.719Z" fill="#3F3D56"/>
<path d="M27.3862 288.649C29.0368 288.653 30.6493 289.224 32.0199 290.289C33.3905 291.355 34.4576 292.867 35.0863 294.636C35.715 296.404 35.8771 298.349 35.552 300.224C35.2269 302.099 34.4292 303.82 33.2599 305.169C32.0906 306.519 30.6021 307.437 28.9826 307.806C27.3632 308.176 25.6856 307.981 24.1619 307.245C22.6382 306.51 21.3369 305.268 20.4226 303.676C19.5082 302.083 19.0219 300.213 19.025 298.3C19.0318 295.737 19.9159 293.281 21.4834 291.472C23.0509 289.662 25.1737 288.647 27.3862 288.649ZM27.3558 307.068C28.8491 307.071 30.3098 306.561 31.553 305.602C32.7963 304.644 33.7663 303.28 34.3404 301.682C34.9145 300.085 35.0669 298.326 34.7784 296.629C34.4899 294.931 33.7734 293.37 32.7194 292.145C31.6655 290.919 30.3215 290.083 28.8574 289.742C27.3934 289.401 25.8749 289.571 24.4942 290.23C23.1134 290.889 21.9324 292.008 21.1003 293.445C20.2683 294.881 19.8227 296.572 19.8198 298.302C19.8183 300.622 20.6108 302.847 22.0236 304.49C23.4363 306.134 25.354 307.06 27.3558 307.068Z" fill="#3F3D56"/>
<path d="M27.3703 302.003C29.1261 302.003 30.5494 300.353 30.5494 298.319C30.5494 296.285 29.1261 294.635 27.3703 294.635C25.6145 294.635 24.1912 296.285 24.1912 298.319C24.1912 300.353 25.6145 302.003 27.3703 302.003Z" fill="#07730A"/>
<path d="M336.642 379.798H331.033L332.035 343.821L346.859 344.749L336.642 379.798Z" fill="#FFB8B8"/>
<path d="M337.408 400.474C335.715 401.369 334.297 394.115 332.869 395.741C328.874 400.29 324.747 401.28 319.415 399.294L319.291 399.27C318.97 399.15 318.672 398.956 318.417 398.699C318.162 398.442 317.955 398.128 317.808 397.776C317.661 397.423 317.577 397.04 317.561 396.648C317.546 396.257 317.599 395.867 317.718 395.5C317.86 395.061 318.091 394.669 318.393 394.357C318.695 394.045 319.058 393.823 319.45 393.709L323.698 392.478L330.368 378.887L337.178 378.354C338.696 380.596 339.755 383.208 340.276 385.993C340.798 388.779 340.767 391.664 340.187 394.434C339.569 397.356 338.615 399.835 337.408 400.474Z" fill="#A0616A"/>
<path d="M389.93 375.042L384.714 377.432L374.225 343.551L388.305 338.097L389.93 375.042Z" fill="#FFB8B8"/>
<path d="M397.205 393.943C395.915 395.497 392.293 389.356 391.482 391.477C389.211 397.408 385.687 400.088 380.099 400.514L379.976 400.544C379.639 400.57 379.301 400.516 378.982 400.386C378.663 400.256 378.371 400.052 378.122 399.787C377.873 399.522 377.674 399.201 377.535 398.844C377.397 398.486 377.322 398.1 377.316 397.709C377.309 397.24 377.4 396.777 377.581 396.358C377.763 395.939 378.03 395.578 378.358 395.305L381.918 392.35L383.806 376.869L389.969 373.471C392.093 374.909 393.907 376.887 395.276 379.255C396.644 381.623 397.532 384.319 397.872 387.142C398.225 390.123 398.124 392.835 397.205 393.943Z" fill="#975959"/>
<path d="M372.902 201.322L364.291 203.888C363.639 204.082 362.958 204.104 362.298 203.954C361.638 203.803 361.015 203.483 360.476 203.018C359.936 202.552 359.493 201.952 359.18 201.262C358.867 200.572 358.691 199.81 358.665 199.031C358.641 198.314 358.745 197.6 358.97 196.932C359.194 196.265 359.536 195.658 359.972 195.149C360.408 194.641 360.93 194.242 361.504 193.977C362.079 193.712 362.695 193.588 363.314 193.611L370.899 193.894L385.515 187.728L371.7 175.79L373.303 159.078L400.226 184.123C400.706 184.569 401.101 185.126 401.387 185.758C401.673 186.389 401.843 187.083 401.887 187.794C401.961 188.99 401.674 190.179 401.076 191.158C400.478 192.137 399.606 192.845 398.608 193.162C392.299 199.127 383.109 200.954 372.902 201.322Z" fill="#FFB8B8"/>
<path d="M353.271 138.653C361.015 138.653 367.293 131.379 367.293 122.405C367.293 113.432 361.015 106.158 353.271 106.158C345.526 106.158 339.248 113.432 339.248 122.405C339.248 131.379 345.526 138.653 353.271 138.653Z" fill="#FFB8B8"/>
<path d="M370.498 144.688L351.668 153.508C352.221 146.611 350.661 139.708 347.261 134.011L362.886 129.833C362.683 135.362 365.263 140.305 370.498 144.688Z" fill="#FFB8B8"/>
<path d="M373.903 182.521C358.724 183.929 350.422 181.593 337.646 173.005L342.453 160.007C342.212 158.05 342.441 156.053 343.116 154.237C343.79 152.421 344.883 150.856 346.276 149.713L351.267 145.616L366.492 140.51L367.175 140.549C369.2 140.667 371.119 141.635 372.572 143.274C374.024 144.913 374.912 147.11 375.067 149.452C378.375 160.905 378.396 171.976 373.903 182.521Z" fill="#79A5D9"/>
<path d="M370.899 209.678L338.447 205.5L336.043 193.43C330.715 184.11 333.041 175.574 339.248 167.434C350.564 175.848 361.067 179.484 376.107 176.718C372.107 187.989 368.413 199.066 370.899 209.678Z" fill="#2F2E41"/>
<path d="M396.139 350.335L370.298 348.71L361.884 271.186L355.074 348.246L324.425 346.621C333.774 295.961 340.269 247.868 338.447 203.643L370.498 206.892C381.361 220.163 386.754 241.347 389.929 266.544C393.104 291.741 395.663 320.951 396.139 350.335Z" fill="#C4C4C4"/>
<path d="M368.707 107.614C371.369 107.614 373.527 105.114 373.527 102.03C373.527 98.9453 371.369 96.445 368.707 96.445C366.045 96.445 363.887 98.9453 363.887 102.03C363.887 105.114 366.045 107.614 368.707 107.614Z" fill="#2F2E41"/>
<path d="M363.741 100.662C363.82 99.2455 364.362 97.9169 365.257 96.9471C366.152 95.9773 367.333 95.4394 368.558 95.4428C368.459 95.4281 368.36 95.4103 368.258 95.4028C366.983 95.3078 365.727 95.8038 364.767 96.7818C363.807 97.7597 363.221 99.1395 363.139 100.618C363.057 102.096 363.485 103.551 364.329 104.663C365.173 105.776 366.364 106.454 367.64 106.549C367.741 106.557 367.841 106.554 367.942 106.554C366.726 106.375 365.615 105.667 364.834 104.572C364.054 103.478 363.662 102.079 363.741 100.662Z" fill="#2F2E41"/>
<path d="M363.713 103.047C359.415 98.9155 347.086 104.167 346.29 106.945C340.477 107.862 336.076 111.792 336.076 118.779V118.779C339.532 120.42 343.463 120.217 347.711 118.779C354.484 125.175 354.948 133.214 350.83 142.448L355.897 142.566L362.178 131.929L362.479 142.718L374.094 142.448V126.986C374.132 121.845 373.111 116.768 371.115 112.176C369.305 108.101 366.496 105.722 363.713 103.047Z" fill="#7F0505"/>
<path d="M352.897 130.365C354.17 130.365 355.202 128.691 355.202 126.627C355.202 124.562 354.17 122.888 352.897 122.888C351.624 122.888 350.592 124.562 350.592 126.627C350.592 128.691 351.624 130.365 352.897 130.365Z" fill="#FFB8B8"/>
<path d="M335.267 270.015C335.482 270.015 335.688 270.114 335.839 270.29C335.991 270.466 336.077 270.704 336.077 270.953V308.465C336.077 308.714 335.991 308.952 335.839 309.128C335.688 309.304 335.482 309.403 335.267 309.403H312.039C311.824 309.403 311.618 309.304 311.466 309.128C311.315 308.952 311.229 308.714 311.229 308.465V270.953C311.229 270.704 311.315 270.466 311.466 270.29C311.618 270.114 311.824 270.015 312.039 270.015H335.267Z" fill="#79A5D9"/>
<path d="M338.447 256.099L339.231 271.854C339.282 272.868 339.137 273.882 338.807 274.823C338.477 275.764 337.97 276.609 337.323 277.294C336.677 277.98 335.906 278.491 335.068 278.788C334.23 279.086 333.345 279.164 332.478 279.016C329.023 278.428 328.945 274.513 329.792 270.588L333.018 255.635C340.933 222.753 343.069 190.478 342.669 159.001C342.653 157.934 342.823 156.874 343.17 155.885C343.517 154.896 344.034 153.998 344.688 153.247C345.343 152.496 346.122 151.906 346.979 151.513C347.836 151.12 348.752 150.932 349.673 150.961C350.572 150.992 351.456 151.227 352.276 151.655C353.095 152.083 353.834 152.694 354.449 153.454C355.064 154.214 355.543 155.107 355.858 156.082C356.174 157.057 356.32 158.095 356.289 159.136C355.168 196.098 350.516 229.664 338.447 256.099Z" fill="#FFB8B8"/>
</g>
<defs>
<clipPath id="clip0">
<rect width="427" height="401" fill="white"/>
</clipPath>
</defs>
</svg>
